<?xml version="1.0" encoding="UTF-8"?><svg id="Layer_1" xmlns="http://www.w3.org/2000/svg" xmlns:xlink="http://www.w3.org/1999/xlink" viewBox="0 0 144 144"><defs><style>.cls-1{fill:url(#Orange_Yellow);}</style><linearGradient id="Orange_Yellow" x1="0" y1="72" x2="144" y2="72" gradientUnits="userSpaceOnUse"><stop offset="0" stop-color="#fff33b"/><stop offset=".04" stop-color="#fee62d"/><stop offset=".12" stop-color="#fdd51b"/><stop offset=".2" stop-color="#fdca0f"/><stop offset=".28" stop-color="#fdc70c"/><stop offset=".67" stop-color="#f3903f"/><stop offset=".89" stop-color="#ed683c"/><stop offset="1" stop-color="#e93e3a"/></linearGradient></defs><path class="cls-1" d="m86.99,51.98h-29.98c-2.77,0-5.03,2.26-5.03,5.03v29.98c0,2.77,2.26,5.03,5.03,5.03h29.98c2.77,0,5.03-2.26,5.03-5.03v-29.98c0-2.77-2.26-5.03-5.03-5.03Zm0,0h-29.98c-2.77,0-5.03,2.26-5.03,5.03v29.98c0,2.77,2.26,5.03,5.03,5.03h29.98c2.77,0,5.03-2.26,5.03-5.03v-29.98c0-2.77-2.26-5.03-5.03-5.03Zm0,0h-29.98c-2.77,0-5.03,2.26-5.03,5.03v29.98c0,2.77,2.26,5.03,5.03,5.03h29.98c2.77,0,5.03-2.26,5.03-5.03v-29.98c0-2.77-2.26-5.03-5.03-5.03Zm0,0h-29.98c-2.77,0-5.03,2.26-5.03,5.03v29.98c0,2.77,2.26,5.03,5.03,5.03h29.98c2.77,0,5.03-2.26,5.03-5.03v-29.98c0-2.77-2.26-5.03-5.03-5.03Zm0,0h-29.98c-2.77,0-5.03,2.26-5.03,5.03v29.98c0,2.77,2.26,5.03,5.03,5.03h29.98c2.77,0,5.03-2.26,5.03-5.03v-29.98c0-2.77-2.26-5.03-5.03-5.03Zm0,0h-29.98c-2.77,0-5.03,2.26-5.03,5.03v29.98c0,2.77,2.26,5.03,5.03,5.03h29.98c2.77,0,5.03-2.26,5.03-5.03v-29.98c0-2.77-2.26-5.03-5.03-5.03Zm0,0h-29.98c-2.77,0-5.03,2.26-5.03,5.03v29.98c0,2.77,2.26,5.03,5.03,5.03h29.98c2.77,0,5.03-2.26,5.03-5.03v-29.98c0-2.77-2.26-5.03-5.03-5.03Zm0,0h-29.98c-2.77,0-5.03,2.26-5.03,5.03v29.98c0,2.77,2.26,5.03,5.03,5.03h29.98c2.77,0,5.03-2.26,5.03-5.03v-29.98c0-2.77-2.26-5.03-5.03-5.03Zm0,0h-29.98c-2.77,0-5.03,2.26-5.03,5.03v29.98c0,2.77,2.26,5.03,5.03,5.03h29.98c2.77,0,5.03-2.26,5.03-5.03v-29.98c0-2.77-2.26-5.03-5.03-5.03Zm0,0h-29.98c-2.77,0-5.03,2.26-5.03,5.03v29.98c0,2.77,2.26,5.03,5.03,5.03h29.98c2.77,0,5.03-2.26,5.03-5.03v-29.98c0-2.77-2.26-5.03-5.03-5.03Zm0,0h-29.98c-2.77,0-5.03,2.26-5.03,5.03v29.98c0,2.77,2.26,5.03,5.03,5.03h29.98c2.77,0,5.03-2.26,5.03-5.03v-29.98c0-2.77-2.26-5.03-5.03-5.03Zm0,0h-29.98c-2.77,0-5.03,2.26-5.03,5.03v29.98c0,2.77,2.26,5.03,5.03,5.03h29.98c2.77,0,5.03-2.26,5.03-5.03v-29.98c0-2.77-2.26-5.03-5.03-5.03Zm18.7-20.01H38.36c-3.52,0-6.39,2.87-6.39,6.39v67.33c0,3.52,2.87,6.39,6.39,6.39h67.33c3.52,0,6.39-2.87,6.39-6.39V38.36c0-3.52-2.87-6.39-6.39-6.39Zm-8.67,55.02c0,5.54-4.49,10.03-10.03,10.03h-29.98c-5.54,0-10.03-4.49-10.03-10.03v-29.98c0-5.54,4.49-10.03,10.03-10.03h29.98c5.54,0,10.03,4.49,10.03,10.03v29.98Zm-10.03-35.01h-29.98c-2.77,0-5.03,2.26-5.03,5.03v29.98c0,2.77,2.26,5.03,5.03,5.03h29.98c2.77,0,5.03-2.26,5.03-5.03v-29.98c0-2.77-2.26-5.03-5.03-5.03Zm0,0h-29.98c-2.77,0-5.03,2.26-5.03,5.03v29.98c0,2.77,2.26,5.03,5.03,5.03h29.98c2.77,0,5.03-2.26,5.03-5.03v-29.98c0-2.77-2.26-5.03-5.03-5.03Zm0,0h-29.98c-2.77,0-5.03,2.26-5.03,5.03v29.98c0,2.77,2.26,5.03,5.03,5.03h29.98c2.77,0,5.03-2.26,5.03-5.03v-29.98c0-2.77-2.26-5.03-5.03-5.03Zm0,0h-29.98c-2.77,0-5.03,2.26-5.03,5.03v29.98c0,2.77,2.26,5.03,5.03,5.03h29.98c2.77,0,5.03-2.26,5.03-5.03v-29.98c0-2.77-2.26-5.03-5.03-5.03Zm0,0h-29.98c-2.77,0-5.03,2.26-5.03,5.03v29.98c0,2.77,2.26,5.03,5.03,5.03h29.98c2.77,0,5.03-2.26,5.03-5.03v-29.98c0-2.77-2.26-5.03-5.03-5.03Zm0,0h-29.98c-2.77,0-5.03,2.26-5.03,5.03v29.98c0,2.77,2.26,5.03,5.03,5.03h29.98c2.77,0,5.03-2.26,5.03-5.03v-29.98c0-2.77-2.26-5.03-5.03-5.03Zm0,0h-29.98c-2.77,0-5.03,2.26-5.03,5.03v29.98c0,2.77,2.26,5.03,5.03,5.03h29.98c2.77,0,5.03-2.26,5.03-5.03v-29.98c0-2.77-2.26-5.03-5.03-5.03Zm0,0h-29.98c-2.77,0-5.03,2.26-5.03,5.03v29.98c0,2.77,2.26,5.03,5.03,5.03h29.98c2.77,0,5.03-2.26,5.03-5.03v-29.98c0-2.77-2.26-5.03-5.03-5.03Zm0,0h-29.98c-2.77,0-5.03,2.26-5.03,5.03v29.98c0,2.77,2.26,5.03,5.03,5.03h29.98c2.77,0,5.03-2.26,5.03-5.03v-29.98c0-2.77-2.26-5.03-5.03-5.03Zm0,0h-29.98c-2.77,0-5.03,2.26-5.03,5.03v29.98c0,2.77,2.26,5.03,5.03,5.03h29.98c2.77,0,5.03-2.26,5.03-5.03v-29.98c0-2.77-2.26-5.03-5.03-5.03Zm0,0h-29.98c-2.77,0-5.03,2.26-5.03,5.03v29.98c0,2.77,2.26,5.03,5.03,5.03h29.98c2.77,0,5.03-2.26,5.03-5.03v-29.98c0-2.77-2.26-5.03-5.03-5.03Zm0,0h-29.98c-2.77,0-5.03,2.26-5.03,5.03v29.98c0,2.77,2.26,5.03,5.03,5.03h29.98c2.77,0,5.03-2.26,5.03-5.03v-29.98c0-2.77-2.26-5.03-5.03-5.03Zm0,0h-29.98c-2.77,0-5.03,2.26-5.03,5.03v29.98c0,2.77,2.26,5.03,5.03,5.03h29.98c2.77,0,5.03-2.26,5.03-5.03v-29.98c0-2.77-2.26-5.03-5.03-5.03Zm0,0h-29.98c-2.77,0-5.03,2.26-5.03,5.03v29.98c0,2.77,2.26,5.03,5.03,5.03h29.98c2.77,0,5.03-2.26,5.03-5.03v-29.98c0-2.77-2.26-5.03-5.03-5.03Zm0,0h-29.98c-2.77,0-5.03,2.26-5.03,5.03v29.98c0,2.77,2.26,5.03,5.03,5.03h29.98c2.77,0,5.03-2.26,5.03-5.03v-29.98c0-2.77-2.26-5.03-5.03-5.03Zm0,0h-29.98c-2.77,0-5.03,2.26-5.03,5.03v29.98c0,2.77,2.26,5.03,5.03,5.03h29.98c2.77,0,5.03-2.26,5.03-5.03v-29.98c0-2.77-2.26-5.03-5.03-5.03Zm0,0h-29.98c-2.77,0-5.03,2.26-5.03,5.03v29.98c0,2.77,2.26,5.03,5.03,5.03h29.98c2.77,0,5.03-2.26,5.03-5.03v-29.98c0-2.77-2.26-5.03-5.03-5.03Zm0,0h-29.98c-2.77,0-5.03,2.26-5.03,5.03v29.98c0,2.77,2.26,5.03,5.03,5.03h29.98c2.77,0,5.03-2.26,5.03-5.03v-29.98c0-2.77-2.26-5.03-5.03-5.03Zm0,0h-29.98c-2.77,0-5.03,2.26-5.03,5.03v29.98c0,2.77,2.26,5.03,5.03,5.03h29.98c2.77,0,5.03-2.26,5.03-5.03v-29.98c0-2.77-2.26-5.03-5.03-5.03Zm0,0h-29.98c-2.77,0-5.03,2.26-5.03,5.03v29.98c0,2.77,2.26,5.03,5.03,5.03h29.98c2.77,0,5.03-2.26,5.03-5.03v-29.98c0-2.77-2.26-5.03-5.03-5.03Zm0,0h-29.98c-2.77,0-5.03,2.26-5.03,5.03v29.98c0,2.77,2.26,5.03,5.03,5.03h29.98c2.77,0,5.03-2.26,5.03-5.03v-29.98c0-2.77-2.26-5.03-5.03-5.03Zm18.7-20.01H38.36c-3.52,0-6.39,2.87-6.39,6.39v67.33c0,3.52,2.87,6.39,6.39,6.39h67.33c3.52,0,6.39-2.87,6.39-6.39V38.36c0-3.52-2.87-6.39-6.39-6.39Zm-8.67,55.02c0,5.54-4.49,10.03-10.03,10.03h-29.98c-5.54,0-10.03-4.49-10.03-10.03v-29.98c0-5.54,4.49-10.03,10.03-10.03h29.98c5.54,0,10.03,4.49,10.03,10.03v29.98Zm-10.03-35.01h-29.98c-2.77,0-5.03,2.26-5.03,5.03v29.98c0,2.77,2.26,5.03,5.03,5.03h29.98c2.77,0,5.03-2.26,5.03-5.03v-29.98c0-2.77-2.26-5.03-5.03-5.03Zm0,0h-29.98c-2.77,0-5.03,2.26-5.03,5.03v29.98c0,2.77,2.26,5.03,5.03,5.03h29.98c2.77,0,5.03-2.26,5.03-5.03v-29.98c0-2.77-2.26-5.03-5.03-5.03Zm0,0h-29.98c-2.77,0-5.03,2.26-5.03,5.03v29.98c0,2.77,2.26,5.03,5.03,5.03h29.98c2.77,0,5.03-2.26,5.03-5.03v-29.98c0-2.77-2.26-5.03-5.03-5.03Zm0,0h-29.98c-2.77,0-5.03,2.26-5.03,5.03v29.98c0,2.77,2.26,5.03,5.03,5.03h29.98c2.77,0,5.03-2.26,5.03-5.03v-29.98c0-2.77-2.26-5.03-5.03-5.03Zm0,0h-29.98c-2.77,0-5.03,2.26-5.03,5.03v29.98c0,2.77,2.26,5.03,5.03,5.03h29.98c2.77,0,5.03-2.26,5.03-5.03v-29.98c0-2.77-2.26-5.03-5.03-5.03Zm0,0h-29.98c-2.77,0-5.03,2.26-5.03,5.03v29.98c0,2.77,2.26,5.03,5.03,5.03h29.98c2.77,0,5.03-2.26,5.03-5.03v-29.98c0-2.77-2.26-5.03-5.03-5.03Zm0,0h-29.98c-2.77,0-5.03,2.26-5.03,5.03v29.98c0,2.77,2.26,5.03,5.03,5.03h29.98c2.77,0,5.03-2.26,5.03-5.03v-29.98c0-2.77-2.26-5.03-5.03-5.03Zm0,0h-29.98c-2.77,0-5.03,2.26-5.03,5.03v29.98c0,2.77,2.26,5.03,5.03,5.03h29.98c2.77,0,5.03-2.26,5.03-5.03v-29.98c0-2.77-2.26-5.03-5.03-5.03Zm0,0h-29.98c-2.77,0-5.03,2.26-5.03,5.03v29.98c0,2.77,2.26,5.03,5.03,5.03h29.98c2.77,0,5.03-2.26,5.03-5.03v-29.98c0-2.77-2.26-5.03-5.03-5.03Zm0,0h-29.98c-2.77,0-5.03,2.26-5.03,5.03v29.98c0,2.77,2.26,5.03,5.03,5.03h29.98c2.77,0,5.03-2.26,5.03-5.03v-29.98c0-2.77-2.26-5.03-5.03-5.03Zm0,0h-29.98c-2.77,0-5.03,2.26-5.03,5.03v29.98c0,2.77,2.26,5.03,5.03,5.03h29.98c2.77,0,5.03-2.26,5.03-5.03v-29.98c0-2.77-2.26-5.03-5.03-5.03Zm0,0h-29.98c-2.77,0-5.03,2.26-5.03,5.03v29.98c0,2.77,2.26,5.03,5.03,5.03h29.98c2.77,0,5.03-2.26,5.03-5.03v-29.98c0-2.77-2.26-5.03-5.03-5.03Zm0,0h-29.98c-2.77,0-5.03,2.26-5.03,5.03v29.98c0,2.77,2.26,5.03,5.03,5.03h29.98c2.77,0,5.03-2.26,5.03-5.03v-29.98c0-2.77-2.26-5.03-5.03-5.03Zm0,0h-29.98c-2.77,0-5.03,2.26-5.03,5.03v29.98c0,2.77,2.26,5.03,5.03,5.03h29.98c2.77,0,5.03-2.26,5.03-5.03v-29.98c0-2.77-2.26-5.03-5.03-5.03Zm0,0h-29.98c-2.77,0-5.03,2.26-5.03,5.03v29.98c0,2.77,2.26,5.03,5.03,5.03h29.98c2.77,0,5.03-2.26,5.03-5.03v-29.98c0-2.77-2.26-5.03-5.03-5.03Zm0,0h-29.98c-2.77,0-5.03,2.26-5.03,5.03v29.98c0,2.77,2.26,5.03,5.03,5.03h29.98c2.77,0,5.03-2.26,5.03-5.03v-29.98c0-2.77-2.26-5.03-5.03-5.03Zm0,0h-29.98c-2.77,0-5.03,2.26-5.03,5.03v29.98c0,2.77,2.26,5.03,5.03,5.03h29.98c2.77,0,5.03-2.26,5.03-5.03v-29.98c0-2.77-2.26-5.03-5.03-5.03Zm0,0h-29.98c-2.77,0-5.03,2.26-5.03,5.03v29.98c0,2.77,2.26,5.03,5.03,5.03h29.98c2.77,0,5.03-2.26,5.03-5.03v-29.98c0-2.77-2.26-5.03-5.03-5.03Zm0,0h-29.98c-2.77,0-5.03,2.26-5.03,5.03v29.98c0,2.77,2.26,5.03,5.03,5.03h29.98c2.77,0,5.03-2.26,5.03-5.03v-29.98c0-2.77-2.26-5.03-5.03-5.03Zm0,0h-29.98c-2.77,0-5.03,2.26-5.03,5.03v29.98c0,2.77,2.26,5.03,5.03,5.03h29.98c2.77,0,5.03-2.26,5.03-5.03v-29.98c0-2.77-2.26-5.03-5.03-5.03Zm0,0h-29.98c-2.77,0-5.03,2.26-5.03,5.03v29.98c0,2.77,2.26,5.03,5.03,5.03h29.98c2.77,0,5.03-2.26,5.03-5.03v-29.98c0-2.77-2.26-5.03-5.03-5.03Zm18.7-20.01H38.36c-3.52,0-6.39,2.87-6.39,6.39v67.33c0,3.52,2.87,6.39,6.39,6.39h67.33c3.52,0,6.39-2.87,6.39-6.39V38.36c0-3.52-2.87-6.39-6.39-6.39Zm-8.67,55.02c0,5.54-4.49,10.03-10.03,10.03h-29.98c-5.54,0-10.03-4.49-10.03-10.03v-29.98c0-5.54,4.49-10.03,10.03-10.03h29.98c5.54,0,10.03,4.49,10.03,10.03v29.98Zm-10.03-35.01h-29.98c-2.77,0-5.03,2.26-5.03,5.03v29.98c0,2.77,2.26,5.03,5.03,5.03h29.98c2.77,0,5.03-2.26,5.03-5.03v-29.98c0-2.77-2.26-5.03-5.03-5.03Zm0,0h-29.98c-2.77,0-5.03,2.26-5.03,5.03v29.98c0,2.77,2.26,5.03,5.03,5.03h29.98c2.77,0,5.03-2.26,5.03-5.03v-29.98c0-2.77-2.26-5.03-5.03-5.03Zm0,0h-29.98c-2.77,0-5.03,2.26-5.03,5.03v29.98c0,2.77,2.26,5.03,5.03,5.03h29.98c2.77,0,5.03-2.26,5.03-5.03v-29.98c0-2.77-2.26-5.03-5.03-5.03Zm0,0h-29.98c-2.77,0-5.03,2.26-5.03,5.03v29.98c0,2.77,2.26,5.03,5.03,5.03h29.98c2.77,0,5.03-2.26,5.03-5.03v-29.98c0-2.77-2.26-5.03-5.03-5.03Zm0,0h-29.98c-2.77,0-5.03,2.26-5.03,5.03v29.98c0,2.77,2.26,5.03,5.03,5.03h29.98c2.77,0,5.03-2.26,5.03-5.03v-29.98c0-2.77-2.26-5.03-5.03-5.03Zm0,0h-29.98c-2.77,0-5.03,2.26-5.03,5.03v29.98c0,2.77,2.26,5.03,5.03,5.03h29.98c2.77,0,5.03-2.26,5.03-5.03v-29.98c0-2.77-2.26-5.03-5.03-5.03Zm0,0h-29.98c-2.77,0-5.03,2.26-5.03,5.03v29.98c0,2.77,2.26,5.03,5.03,5.03h29.98c2.77,0,5.03-2.26,5.03-5.03v-29.98c0-2.77-2.26-5.03-5.03-5.03Zm0,0h-29.98c-2.77,0-5.03,2.26-5.03,5.03v29.98c0,2.77,2.26,5.03,5.03,5.03h29.98c2.77,0,5.03-2.26,5.03-5.03v-29.98c0-2.77-2.26-5.03-5.03-5.03Zm0,0h-29.98c-2.77,0-5.03,2.26-5.03,5.03v29.98c0,2.77,2.26,5.03,5.03,5.03h29.98c2.77,0,5.03-2.26,5.03-5.03v-29.98c0-2.77-2.26-5.03-5.03-5.03Zm0,0h-29.98c-2.77,0-5.03,2.26-5.03,5.03v29.98c0,2.77,2.26,5.03,5.03,5.03h29.98c2.77,0,5.03-2.26,5.03-5.03v-29.98c0-2.77-2.26-5.03-5.03-5.03Zm0,0h-29.98c-2.77,0-5.03,2.26-5.03,5.03v29.98c0,2.77,2.26,5.03,5.03,5.03h29.98c2.77,0,5.03-2.26,5.03-5.03v-29.98c0-2.77-2.26-5.03-5.03-5.03Zm0,0h-29.98c-2.77,0-5.03,2.26-5.03,5.03v29.98c0,2.77,2.26,5.03,5.03,5.03h29.98c2.77,0,5.03-2.26,5.03-5.03v-29.98c0-2.77-2.26-5.03-5.03-5.03Zm0,0h-29.98c-2.77,0-5.03,2.26-5.03,5.03v29.98c0,2.77,2.26,5.03,5.03,5.03h29.98c2.77,0,5.03-2.26,5.03-5.03v-29.98c0-2.77-2.26-5.03-5.03-5.03Zm0,0h-29.98c-2.77,0-5.03,2.26-5.03,5.03v29.98c0,2.77,2.26,5.03,5.03,5.03h29.98c2.77,0,5.03-2.26,5.03-5.03v-29.98c0-2.77-2.26-5.03-5.03-5.03Zm0,0h-29.98c-2.77,0-5.03,2.26-5.03,5.03v29.98c0,2.77,2.26,5.03,5.03,5.03h29.98c2.77,0,5.03-2.26,5.03-5.03v-29.98c0-2.77-2.26-5.03-5.03-5.03Zm0,0h-29.98c-2.77,0-5.03,2.26-5.03,5.03v29.98c0,2.77,2.26,5.03,5.03,5.03h29.98c2.77,0,5.03-2.26,5.03-5.03v-29.98c0-2.77-2.26-5.03-5.03-5.03Zm0,0h-29.98c-2.77,0-5.03,2.26-5.03,5.03v29.98c0,2.77,2.26,5.03,5.03,5.03h29.98c2.77,0,5.03-2.26,5.03-5.03v-29.98c0-2.77-2.26-5.03-5.03-5.03Zm18.7-20.01H38.36c-3.52,0-6.39,2.87-6.39,6.39v67.33c0,3.52,2.87,6.39,6.39,6.39h67.33c3.52,0,6.39-2.87,6.39-6.39V38.36c0-3.52-2.87-6.39-6.39-6.39Zm-8.67,55.02c0,5.54-4.49,10.03-10.03,10.03h-29.98c-5.54,0-10.03-4.49-10.03-10.03v-29.98c0-5.54,4.49-10.03,10.03-10.03h29.98c5.54,0,10.03,4.49,10.03,10.03v29.98Zm-10.03-35.01h-29.98c-2.77,0-5.03,2.26-5.03,5.03v29.98c0,2.77,2.26,5.03,5.03,5.03h29.98c2.77,0,5.03-2.26,5.03-5.03v-29.98c0-2.77-2.26-5.03-5.03-5.03Zm0,0h-29.98c-2.77,0-5.03,2.26-5.03,5.03v29.98c0,2.77,2.26,5.03,5.03,5.03h29.98c2.77,0,5.03-2.26,5.03-5.03v-29.98c0-2.77-2.26-5.03-5.03-5.03Zm0,0h-29.98c-2.77,0-5.03,2.26-5.03,5.03v29.98c0,2.77,2.26,5.03,5.03,5.03h29.98c2.77,0,5.03-2.26,5.03-5.03v-29.98c0-2.77-2.26-5.03-5.03-5.03Zm0,0h-29.98c-2.77,0-5.03,2.26-5.03,5.03v29.98c0,2.77,2.26,5.03,5.03,5.03h29.98c2.77,0,5.03-2.26,5.03-5.03v-29.98c0-2.77-2.26-5.03-5.03-5.03Zm0,0h-29.98c-2.77,0-5.03,2.26-5.03,5.03v29.98c0,2.77,2.26,5.03,5.03,5.03h29.98c2.77,0,5.03-2.26,5.03-5.03v-29.98c0-2.77-2.26-5.03-5.03-5.03Zm0,0h-29.98c-2.77,0-5.03,2.26-5.03,5.03v29.98c0,2.77,2.26,5.03,5.03,5.03h29.98c2.77,0,5.03-2.26,5.03-5.03v-29.98c0-2.77-2.26-5.03-5.03-5.03Zm0,0h-29.98c-2.77,0-5.03,2.26-5.03,5.03v29.98c0,2.77,2.26,5.03,5.03,5.03h29.98c2.77,0,5.03-2.26,5.03-5.03v-29.98c0-2.77-2.26-5.03-5.03-5.03Zm0,0h-29.98c-2.77,0-5.03,2.26-5.03,5.03v29.98c0,2.77,2.26,5.03,5.03,5.03h29.98c2.77,0,5.03-2.26,5.03-5.03v-29.98c0-2.77-2.26-5.03-5.03-5.03Zm0,0h-29.98c-2.77,0-5.03,2.26-5.03,5.03v29.98c0,2.77,2.26,5.03,5.03,5.03h29.98c2.77,0,5.03-2.26,5.03-5.03v-29.98c0-2.77-2.26-5.03-5.03-5.03Zm0,0h-29.98c-2.77,0-5.03,2.26-5.03,5.03v29.98c0,2.77,2.26,5.03,5.03,5.03h29.98c2.77,0,5.03-2.26,5.03-5.03v-29.98c0-2.77-2.26-5.03-5.03-5.03Zm0,0h-29.98c-2.77,0-5.03,2.26-5.03,5.03v29.98c0,2.77,2.26,5.03,5.03,5.03h29.98c2.77,0,5.03-2.26,5.03-5.03v-29.98c0-2.77-2.26-5.03-5.03-5.03Zm0,0h-29.98c-2.77,0-5.03,2.26-5.03,5.03v29.98c0,2.77,2.26,5.03,5.03,5.03h29.98c2.77,0,5.03-2.26,5.03-5.03v-29.98c0-2.77-2.26-5.03-5.03-5.03Zm0,0h-29.98c-2.77,0-5.03,2.26-5.03,5.03v29.98c0,2.77,2.26,5.03,5.03,5.03h29.98c2.77,0,5.03-2.26,5.03-5.03v-29.98c0-2.77-2.26-5.03-5.03-5.03Zm0,0h-29.98c-2.77,0-5.03,2.26-5.03,5.03v29.98c0,2.77,2.26,5.03,5.03,5.03h29.98c2.77,0,5.03-2.26,5.03-5.03v-29.98c0-2.77-2.26-5.03-5.03-5.03Zm0,0h-29.98c-2.77,0-5.03,2.26-5.03,5.03v29.98c0,2.77,2.26,5.03,5.03,5.03h29.98c2.77,0,5.03-2.26,5.03-5.03v-29.98c0-2.77-2.26-5.03-5.03-5.03Zm0,0h-29.98c-2.77,0-5.03,2.26-5.03,5.03v29.98c0,2.77,2.26,5.03,5.03,5.03h29.98c2.77,0,5.03-2.26,5.03-5.03v-29.98c0-2.77-2.26-5.03-5.03-5.03Zm0,0h-29.98c-2.77,0-5.03,2.26-5.03,5.03v29.98c0,2.77,2.26,5.03,5.03,5.03h29.98c2.77,0,5.03-2.26,5.03-5.03v-29.98c0-2.77-2.26-5.03-5.03-5.03Zm18.7-20.01H38.36c-3.52,0-6.39,2.87-6.39,6.39v67.33c0,3.52,2.87,6.39,6.39,6.39h67.33c3.52,0,6.39-2.87,6.39-6.39V38.36c0-3.52-2.87-6.39-6.39-6.39Zm-8.67,55.02c0,5.54-4.49,10.03-10.03,10.03h-29.98c-5.54,0-10.03-4.49-10.03-10.03v-29.98c0-5.54,4.49-10.03,10.03-10.03h29.98c5.54,0,10.03,4.49,10.03,10.03v29.98Zm-10.03-35.01h-29.98c-2.77,0-5.03,2.26-5.03,5.03v29.98c0,2.77,2.26,5.03,5.03,5.03h29.98c2.77,0,5.03-2.26,5.03-5.03v-29.98c0-2.77-2.26-5.03-5.03-5.03Zm0,0h-29.98c-2.77,0-5.03,2.26-5.03,5.03v29.98c0,2.77,2.26,5.03,5.03,5.03h29.98c2.77,0,5.03-2.26,5.03-5.03v-29.98c0-2.77-2.26-5.03-5.03-5.03Zm0,0h-29.98c-2.77,0-5.03,2.26-5.03,5.03v29.98c0,2.77,2.26,5.03,5.03,5.03h29.98c2.77,0,5.03-2.26,5.03-5.03v-29.98c0-2.77-2.26-5.03-5.03-5.03Zm0,0h-29.98c-2.77,0-5.03,2.26-5.03,5.03v29.98c0,2.77,2.26,5.03,5.03,5.03h29.98c2.77,0,5.03-2.26,5.03-5.03v-29.98c0-2.77-2.26-5.03-5.03-5.03Zm0,0h-29.98c-2.77,0-5.03,2.26-5.03,5.03v29.98c0,2.77,2.26,5.03,5.03,5.03h29.98c2.77,0,5.03-2.26,5.03-5.03v-29.98c0-2.77-2.26-5.03-5.03-5.03Zm0,0h-29.98c-2.77,0-5.03,2.26-5.03,5.03v29.98c0,2.77,2.26,5.03,5.03,5.03h29.98c2.77,0,5.03-2.26,5.03-5.03v-29.98c0-2.77-2.26-5.03-5.03-5.03Zm0,0h-29.98c-2.77,0-5.03,2.26-5.03,5.03v29.98c0,2.77,2.26,5.03,5.03,5.03h29.98c2.77,0,5.03-2.26,5.03-5.03v-29.98c0-2.77-2.26-5.03-5.03-5.03Zm0,0h-29.98c-2.77,0-5.03,2.26-5.03,5.03v29.98c0,2.77,2.26,5.03,5.03,5.03h29.98c2.77,0,5.03-2.26,5.03-5.03v-29.98c0-2.77-2.26-5.03-5.03-5.03Zm0,0h-29.98c-2.77,0-5.03,2.26-5.03,5.03v29.98c0,2.77,2.26,5.03,5.03,5.03h29.98c2.77,0,5.03-2.26,5.03-5.03v-29.98c0-2.77-2.26-5.03-5.03-5.03Zm0,0h-29.98c-2.77,0-5.03,2.26-5.03,5.03v29.98c0,2.77,2.26,5.03,5.03,5.03h29.98c2.77,0,5.03-2.26,5.03-5.03v-29.98c0-2.77-2.26-5.03-5.03-5.03Zm0,0h-29.98c-2.77,0-5.03,2.26-5.03,5.03v29.98c0,2.77,2.26,5.03,5.03,5.03h29.98c2.77,0,5.03-2.26,5.03-5.03v-29.98c0-2.77-2.26-5.03-5.03-5.03Zm0,0h-29.98c-2.77,0-5.03,2.26-5.03,5.03v29.98c0,2.77,2.26,5.03,5.03,5.03h29.98c2.77,0,5.03-2.26,5.03-5.03v-29.98c0-2.77-2.26-5.03-5.03-5.03Zm0,0h-29.98c-2.77,0-5.03,2.26-5.03,5.03v29.98c0,2.77,2.26,5.03,5.03,5.03h29.98c2.77,0,5.03-2.26,5.03-5.03v-29.98c0-2.77-2.26-5.03-5.03-5.03Zm18.7-20.01H38.36c-3.52,0-6.39,2.87-6.39,6.39v67.33c0,3.52,2.87,6.39,6.39,6.39h67.33c3.52,0,6.39-2.87,6.39-6.39V38.36c0-3.52-2.87-6.39-6.39-6.39Zm-8.67,55.02c0,5.54-4.49,10.03-10.03,10.03h-29.98c-5.54,0-10.03-4.49-10.03-10.03v-29.98c0-5.54,4.49-10.03,10.03-10.03h29.98c5.54,0,10.03,4.49,10.03,10.03v29.98Zm-10.03-35.01h-29.98c-2.77,0-5.03,2.26-5.03,5.03v29.98c0,2.77,2.26,5.03,5.03,5.03h29.98c2.77,0,5.03-2.26,5.03-5.03v-29.98c0-2.77-2.26-5.03-5.03-5.03Zm0,0h-29.98c-2.77,0-5.03,2.26-5.03,5.03v29.98c0,2.77,2.26,5.03,5.03,5.03h29.98c2.77,0,5.03-2.26,5.03-5.03v-29.98c0-2.77-2.26-5.03-5.03-5.03Zm0,0h-29.98c-2.77,0-5.03,2.26-5.03,5.03v29.98c0,2.77,2.26,5.03,5.03,5.03h29.98c2.77,0,5.03-2.26,5.03-5.03v-29.98c0-2.77-2.26-5.03-5.03-5.03Zm0,0h-29.98c-2.77,0-5.03,2.26-5.03,5.03v29.98c0,2.77,2.26,5.03,5.03,5.03h29.98c2.77,0,5.03-2.26,5.03-5.03v-29.98c0-2.77-2.26-5.03-5.03-5.03Zm0,0h-29.98c-2.77,0-5.03,2.26-5.03,5.03v29.98c0,2.77,2.26,5.03,5.03,5.03h29.98c2.77,0,5.03-2.26,5.03-5.03v-29.98c0-2.77-2.26-5.03-5.03-5.03Zm0,0h-29.98c-2.77,0-5.03,2.26-5.03,5.03v29.98c0,2.77,2.26,5.03,5.03,5.03h29.98c2.77,0,5.03-2.26,5.03-5.03v-29.98c0-2.77-2.26-5.03-5.03-5.03Zm0,0h-29.98c-2.77,0-5.03,2.26-5.03,5.03v29.98c0,2.77,2.26,5.03,5.03,5.03h29.98c2.77,0,5.03-2.26,5.03-5.03v-29.98c0-2.77-2.26-5.03-5.03-5.03Zm0,0h-29.98c-2.77,0-5.03,2.26-5.03,5.03v29.98c0,2.77,2.26,5.03,5.03,5.03h29.98c2.77,0,5.03-2.26,5.03-5.03v-29.98c0-2.77-2.26-5.03-5.03-5.03Zm0,0h-29.98c-2.77,0-5.03,2.26-5.03,5.03v29.98c0,2.77,2.26,5.03,5.03,5.03h29.98c2.77,0,5.03-2.26,5.03-5.03v-29.98c0-2.77-2.26-5.03-5.03-5.03Zm0,0h-29.98c-2.77,0-5.03,2.26-5.03,5.03v29.98c0,2.77,2.26,5.03,5.03,5.03h29.98c2.77,0,5.03-2.26,5.03-5.03v-29.98c0-2.77-2.26-5.03-5.03-5.03Zm0,0h-29.98c-2.77,0-5.03,2.26-5.03,5.03v29.98c0,2.77,2.26,5.03,5.03,5.03h29.98c2.77,0,5.03-2.26,5.03-5.03v-29.98c0-2.77-2.26-5.03-5.03-5.03Zm0,0h-29.98c-2.77,0-5.03,2.26-5.03,5.03v29.98c0,2.77,2.26,5.03,5.03,5.03h29.98c2.77,0,5.03-2.26,5.03-5.03v-29.98c0-2.77-2.26-5.03-5.03-5.03Zm0,0h-29.98c-2.77,0-5.03,2.26-5.03,5.03v29.98c0,2.77,2.26,5.03,5.03,5.03h29.98c2.77,0,5.03-2.26,5.03-5.03v-29.98c0-2.77-2.26-5.03-5.03-5.03Zm18.7-20.01H38.36c-3.52,0-6.39,2.87-6.39,6.39v67.33c0,3.52,2.87,6.39,6.39,6.39h67.33c3.52,0,6.39-2.87,6.39-6.39V38.36c0-3.52-2.87-6.39-6.39-6.39Zm-8.67,55.02c0,5.54-4.49,10.03-10.03,10.03h-29.98c-5.54,0-10.03-4.49-10.03-10.03v-29.98c0-5.54,4.49-10.03,10.03-10.03h29.98c5.54,0,10.03,4.49,10.03,10.03v29.98Zm-10.03-35.01h-29.98c-2.77,0-5.03,2.26-5.03,5.03v29.98c0,2.77,2.26,5.03,5.03,5.03h29.98c2.77,0,5.03-2.26,5.03-5.03v-29.98c0-2.77-2.26-5.03-5.03-5.03Zm0,0h-29.98c-2.77,0-5.03,2.26-5.03,5.03v29.98c0,2.77,2.26,5.03,5.03,5.03h29.98c2.77,0,5.03-2.26,5.03-5.03v-29.98c0-2.77-2.26-5.03-5.03-5.03Zm0,0h-29.98c-2.77,0-5.03,2.26-5.03,5.03v29.98c0,2.77,2.26,5.03,5.03,5.03h29.98c2.77,0,5.03-2.26,5.03-5.03v-29.98c0-2.77-2.26-5.03-5.03-5.03Zm0,0h-29.98c-2.77,0-5.03,2.26-5.03,5.03v29.98c0,2.77,2.26,5.03,5.03,5.03h29.98c2.77,0,5.03-2.26,5.03-5.03v-29.98c0-2.77-2.26-5.03-5.03-5.03Zm0,0h-29.98c-2.77,0-5.03,2.26-5.03,5.03v29.98c0,2.77,2.26,5.03,5.03,5.03h29.98c2.77,0,5.03-2.26,5.03-5.03v-29.98c0-2.77-2.26-5.03-5.03-5.03Zm0,0h-29.98c-2.77,0-5.03,2.26-5.03,5.03v29.98c0,2.77,2.26,5.03,5.03,5.03h29.98c2.77,0,5.03-2.26,5.03-5.03v-29.98c0-2.77-2.26-5.03-5.03-5.03Zm0,0h-29.98c-2.77,0-5.03,2.26-5.03,5.03v29.98c0,2.77,2.26,5.03,5.03,5.03h29.98c2.77,0,5.03-2.26,5.03-5.03v-29.98c0-2.77-2.26-5.03-5.03-5.03Zm0,0h-29.98c-2.77,0-5.03,2.26-5.03,5.03v29.98c0,2.77,2.26,5.03,5.03,5.03h29.98c2.77,0,5.03-2.26,5.03-5.03v-29.98c0-2.77-2.26-5.03-5.03-5.03Zm0,0h-29.98c-2.77,0-5.03,2.26-5.03,5.03v29.98c0,2.77,2.26,5.03,5.03,5.03h29.98c2.77,0,5.03-2.26,5.03-5.03v-29.98c0-2.77-2.26-5.03-5.03-5.03Zm18.7-20.01H38.36c-3.52,0-6.39,2.87-6.39,6.39v67.33c0,3.52,2.87,6.39,6.39,6.39h67.33c3.52,0,6.39-2.87,6.39-6.39V38.36c0-3.52-2.87-6.39-6.39-6.39Zm-8.67,55.02c0,5.54-4.49,10.03-10.03,10.03h-29.98c-5.54,0-10.03-4.49-10.03-10.03v-29.98c0-5.54,4.49-10.03,10.03-10.03h29.98c5.54,0,10.03,4.49,10.03,10.03v29.98Zm-10.03-35.01h-29.98c-2.77,0-5.03,2.26-5.03,5.03v29.98c0,2.77,2.26,5.03,5.03,5.03h29.98c2.77,0,5.03-2.26,5.03-5.03v-29.98c0-2.77-2.26-5.03-5.03-5.03Zm0,0h-29.98c-2.77,0-5.03,2.26-5.03,5.03v29.98c0,2.77,2.26,5.03,5.03,5.03h29.98c2.77,0,5.03-2.26,5.03-5.03v-29.98c0-2.77-2.26-5.03-5.03-5.03Zm0,0h-29.98c-2.77,0-5.03,2.26-5.03,5.03v29.98c0,2.77,2.26,5.03,5.03,5.03h29.98c2.77,0,5.03-2.26,5.03-5.03v-29.98c0-2.77-2.26-5.03-5.03-5.03Zm0,0h-29.98c-2.77,0-5.03,2.26-5.03,5.03v29.98c0,2.77,2.26,5.03,5.03,5.03h29.98c2.77,0,5.03-2.26,5.03-5.03v-29.98c0-2.77-2.26-5.03-5.03-5.03Zm0,0h-29.98c-2.77,0-5.03,2.26-5.03,5.03v29.98c0,2.77,2.26,5.03,5.03,5.03h29.98c2.77,0,5.03-2.26,5.03-5.03v-29.98c0-2.77-2.26-5.03-5.03-5.03Zm0,0h-29.98c-2.77,0-5.03,2.26-5.03,5.03v29.98c0,2.77,2.26,5.03,5.03,5.03h29.98c2.77,0,5.03-2.26,5.03-5.03v-29.98c0-2.77-2.26-5.03-5.03-5.03Zm0,0h-29.98c-2.77,0-5.03,2.26-5.03,5.03v29.98c0,2.77,2.26,5.03,5.03,5.03h29.98c2.77,0,5.03-2.26,5.03-5.03v-29.98c0-2.77-2.26-5.03-5.03-5.03Zm0,0h-29.98c-2.77,0-5.03,2.26-5.03,5.03v29.98c0,2.77,2.26,5.03,5.03,5.03h29.98c2.77,0,5.03-2.26,5.03-5.03v-29.98c0-2.77-2.26-5.03-5.03-5.03Zm0,0h-29.98c-2.77,0-5.03,2.26-5.03,5.03v29.98c0,2.77,2.26,5.03,5.03,5.03h29.98c2.77,0,5.03-2.26,5.03-5.03v-29.98c0-2.77-2.26-5.03-5.03-5.03Zm18.7-20.01H38.36c-3.52,0-6.39,2.87-6.39,6.39v67.33c0,3.52,2.87,6.39,6.39,6.39h67.33c3.52,0,6.39-2.87,6.39-6.39V38.36c0-3.52-2.87-6.39-6.39-6.39Zm-8.67,55.02c0,5.54-4.49,10.03-10.03,10.03h-29.98c-5.54,0-10.03-4.49-10.03-10.03v-29.98c0-5.54,4.49-10.03,10.03-10.03h29.98c5.54,0,10.03,4.49,10.03,10.03v29.98Zm-10.03-35.01h-29.98c-2.77,0-5.03,2.26-5.03,5.03v29.98c0,2.77,2.26,5.03,5.03,5.03h29.98c2.77,0,5.03-2.26,5.03-5.03v-29.98c0-2.77-2.26-5.03-5.03-5.03Zm0,0h-29.98c-2.77,0-5.03,2.26-5.03,5.03v29.98c0,2.77,2.26,5.03,5.03,5.03h29.98c2.77,0,5.03-2.26,5.03-5.03v-29.98c0-2.77-2.26-5.03-5.03-5.03Zm0,0h-29.98c-2.77,0-5.03,2.26-5.03,5.03v29.98c0,2.77,2.26,5.03,5.03,5.03h29.98c2.77,0,5.03-2.26,5.03-5.03v-29.98c0-2.77-2.26-5.03-5.03-5.03Zm0,0h-29.98c-2.77,0-5.03,2.26-5.03,5.03v29.98c0,2.77,2.26,5.03,5.03,5.03h29.98c2.77,0,5.03-2.26,5.03-5.03v-29.98c0-2.77-2.26-5.03-5.03-5.03Zm0,0h-29.98c-2.77,0-5.03,2.26-5.03,5.03v29.98c0,2.77,2.26,5.03,5.03,5.03h29.98c2.77,0,5.03-2.26,5.03-5.03v-29.98c0-2.77-2.26-5.03-5.03-5.03Zm18.7-20.01H38.36c-3.52,0-6.39,2.87-6.39,6.39v67.33c0,3.52,2.87,6.39,6.39,6.39h67.33c3.52,0,6.39-2.87,6.39-6.39V38.36c0-3.52-2.87-6.39-6.39-6.39Zm-8.67,55.02c0,5.54-4.49,10.03-10.03,10.03h-29.98c-5.54,0-10.03-4.49-10.03-10.03v-29.98c0-5.54,4.49-10.03,10.03-10.03h29.98c5.54,0,10.03,4.49,10.03,10.03v29.98Zm-10.03-35.01h-29.98c-2.77,0-5.03,2.26-5.03,5.03v29.98c0,2.77,2.26,5.03,5.03,5.03h29.98c2.77,0,5.03-2.26,5.03-5.03v-29.98c0-2.77-2.26-5.03-5.03-5.03Zm0,0h-29.98c-2.77,0-5.03,2.26-5.03,5.03v29.98c0,2.77,2.26,5.03,5.03,5.03h29.98c2.77,0,5.03-2.26,5.03-5.03v-29.98c0-2.77-2.26-5.03-5.03-5.03Zm0,0h-29.98c-2.77,0-5.03,2.26-5.03,5.03v29.98c0,2.77,2.26,5.03,5.03,5.03h29.98c2.77,0,5.03-2.26,5.03-5.03v-29.98c0-2.77-2.26-5.03-5.03-5.03Zm0,0h-29.98c-2.77,0-5.03,2.26-5.03,5.03v29.98c0,2.77,2.26,5.03,5.03,5.03h29.98c2.77,0,5.03-2.26,5.03-5.03v-29.98c0-2.77-2.26-5.03-5.03-5.03Zm0,0h-29.98c-2.77,0-5.03,2.26-5.03,5.03v29.98c0,2.77,2.26,5.03,5.03,5.03h29.98c2.77,0,5.03-2.26,5.03-5.03v-29.98c0-2.77-2.26-5.03-5.03-5.03Zm18.7-20.01H38.36c-3.52,0-6.39,2.87-6.39,6.39v67.33c0,3.52,2.87,6.39,6.39,6.39h67.33c3.52,0,6.39-2.87,6.39-6.39V38.36c0-3.52-2.87-6.39-6.39-6.39Zm-8.67,55.02c0,5.54-4.49,10.03-10.03,10.03h-29.98c-5.54,0-10.03-4.49-10.03-10.03v-29.98c0-5.54,4.49-10.03,10.03-10.03h29.98c5.54,0,10.03,4.49,10.03,10.03v29.98Zm-10.03-35.01h-29.98c-2.77,0-5.03,2.26-5.03,5.03v29.98c0,2.77,2.26,5.03,5.03,5.03h29.98c2.77,0,5.03-2.26,5.03-5.03v-29.98c0-2.77-2.26-5.03-5.03-5.03Zm18.7-20.01H38.36c-3.52,0-6.39,2.87-6.39,6.39v67.33c0,3.52,2.87,6.39,6.39,6.39h67.33c3.52,0,6.39-2.87,6.39-6.39V38.36c0-3.52-2.87-6.39-6.39-6.39Zm-8.67,55.02c0,5.54-4.49,10.03-10.03,10.03h-29.98c-5.54,0-10.03-4.49-10.03-10.03v-29.98c0-5.54,4.49-10.03,10.03-10.03h29.98c5.54,0,10.03,4.49,10.03,10.03v29.98Zm-10.03-35.01h-29.98c-2.77,0-5.03,2.26-5.03,5.03v29.98c0,2.77,2.26,5.03,5.03,5.03h29.98c2.77,0,5.03-2.26,5.03-5.03v-29.98c0-2.77-2.26-5.03-5.03-5.03ZM121.38,0H22.62C10.18,0,0,10.18,0,22.62v98.76c0,12.44,10.18,22.62,22.62,22.62h98.76c12.44,0,22.62-10.18,22.62-22.62V22.62c0-12.44-10.18-22.62-22.62-22.62Zm-26.86,11.93c0-1.38,1.12-2.5,2.5-2.5s2.5,1.12,2.5,2.5v10.03c0,1.38-1.12,2.5-2.5,2.5s-2.5-1.12-2.5-2.5v-10.03Zm-25.02,0c0-1.38,1.12-2.5,2.5-2.5s2.5,1.12,2.5,2.5v10.03c0,1.38-1.12,2.5-2.5,2.5s-2.5-1.12-2.5-2.5v-10.03Zm-25.02,0c0-1.38,1.12-2.5,2.5-2.5s2.5,1.12,2.5,2.5v10.03c0,1.38-1.12,2.5-2.5,2.5s-2.5-1.12-2.5-2.5v-10.03Zm-22.52,87.59h-10.03c-1.38,0-2.5-1.12-2.5-2.5s1.12-2.5,2.5-2.5h10.03c1.38,0,2.5,1.12,2.5,2.5s-1.12,2.5-2.5,2.5Zm0-25.02h-10.03c-1.38,0-2.5-1.12-2.5-2.5s1.12-2.5,2.5-2.5h10.03c1.38,0,2.5,1.12,2.5,2.5s-1.12,2.5-2.5,2.5Zm0-25.02h-10.03c-1.38,0-2.5-1.12-2.5-2.5s1.12-2.5,2.5-2.5h10.03c1.38,0,2.5,1.12,2.5,2.5s-1.12,2.5-2.5,2.5Zm27.52,82.59c0,1.38-1.12,2.5-2.5,2.5s-2.5-1.12-2.5-2.5v-10.03c0-1.38,1.12-2.5,2.5-2.5s2.5,1.12,2.5,2.5v10.03Zm25.02,0c0,1.38-1.12,2.5-2.5,2.5s-2.5-1.12-2.5-2.5v-10.03c0-1.38,1.12-2.5,2.5-2.5s2.5,1.12,2.5,2.5v10.03Zm25.02,0c0,1.38-1.12,2.5-2.5,2.5s-2.5-1.12-2.5-2.5v-10.03c0-1.38,1.12-2.5,2.5-2.5s2.5,1.12,2.5,2.5v10.03Zm17.56-26.38c0,6.29-5.1,11.39-11.39,11.39H38.36c-6.29,0-11.39-5.1-11.39-11.39V38.36c0-6.29,5.1-11.39,11.39-11.39h67.33c6.29,0,11.39,5.1,11.39,11.39v67.33Zm14.99-6.17h-10.03c-1.38,0-2.5-1.12-2.5-2.5s1.12-2.5,2.5-2.5h10.03c1.38,0,2.5,1.12,2.5,2.5s-1.12,2.5-2.5,2.5Zm0-25.02h-10.03c-1.38,0-2.5-1.12-2.5-2.5s1.12-2.5,2.5-2.5h10.03c1.38,0,2.5,1.12,2.5,2.5s-1.12,2.5-2.5,2.5Zm0-25.02h-10.03c-1.38,0-2.5-1.12-2.5-2.5s1.12-2.5,2.5-2.5h10.03c1.38,0,2.5,1.12,2.5,2.5s-1.12,2.5-2.5,2.5Zm-26.38-17.51H38.36c-3.52,0-6.39,2.87-6.39,6.39v67.33c0,3.52,2.87,6.39,6.39,6.39h67.33c3.52,0,6.39-2.87,6.39-6.39V38.36c0-3.52-2.87-6.39-6.39-6.39Zm-8.67,55.02c0,5.54-4.49,10.03-10.03,10.03h-29.98c-5.54,0-10.03-4.49-10.03-10.03v-29.98c0-5.54,4.49-10.03,10.03-10.03h29.98c5.54,0,10.03,4.49,10.03,10.03v29.98Zm-10.03-35.01h-29.98c-2.77,0-5.03,2.26-5.03,5.03v29.98c0,2.77,2.26,5.03,5.03,5.03h29.98c2.77,0,5.03-2.26,5.03-5.03v-29.98c0-2.77-2.26-5.03-5.03-5.03Zm0,0h-29.98c-2.77,0-5.03,2.26-5.03,5.03v29.98c0,2.77,2.26,5.03,5.03,5.03h29.98c2.77,0,5.03-2.26,5.03-5.03v-29.98c0-2.77-2.26-5.03-5.03-5.03Zm0,0h-29.98c-2.77,0-5.03,2.26-5.03,5.03v29.98c0,2.77,2.26,5.03,5.03,5.03h29.98c2.77,0,5.03-2.26,5.03-5.03v-29.98c0-2.77-2.26-5.03-5.03-5.03Zm18.7-20.01H38.36c-3.52,0-6.39,2.87-6.39,6.39v67.33c0,3.52,2.87,6.39,6.39,6.39h67.33c3.52,0,6.39-2.87,6.39-6.39V38.36c0-3.52-2.87-6.39-6.39-6.39Zm-8.67,55.02c0,5.54-4.49,10.03-10.03,10.03h-29.98c-5.54,0-10.03-4.49-10.03-10.03v-29.98c0-5.54,4.49-10.03,10.03-10.03h29.98c5.54,0,10.03,4.49,10.03,10.03v29.98Zm-10.03-35.01h-29.98c-2.77,0-5.03,2.26-5.03,5.03v29.98c0,2.77,2.26,5.03,5.03,5.03h29.98c2.77,0,5.03-2.26,5.03-5.03v-29.98c0-2.77-2.26-5.03-5.03-5.03Zm0,0h-29.98c-2.77,0-5.03,2.26-5.03,5.03v29.98c0,2.77,2.26,5.03,5.03,5.03h29.98c2.77,0,5.03-2.26,5.03-5.03v-29.98c0-2.77-2.26-5.03-5.03-5.03Zm0,0h-29.98c-2.77,0-5.03,2.26-5.03,5.03v29.98c0,2.77,2.26,5.03,5.03,5.03h29.98c2.77,0,5.03-2.26,5.03-5.03v-29.98c0-2.77-2.26-5.03-5.03-5.03Zm18.7-20.01H38.36c-3.52,0-6.39,2.87-6.39,6.39v67.33c0,3.52,2.87,6.39,6.39,6.39h67.33c3.52,0,6.39-2.87,6.39-6.39V38.36c0-3.52-2.87-6.39-6.39-6.39Zm-8.67,55.02c0,5.54-4.49,10.03-10.03,10.03h-29.98c-5.54,0-10.03-4.49-10.03-10.03v-29.98c0-5.54,4.49-10.03,10.03-10.03h29.98c5.54,0,10.03,4.49,10.03,10.03v29.98Zm-10.03-35.01h-29.98c-2.77,0-5.03,2.26-5.03,5.03v29.98c0,2.77,2.26,5.03,5.03,5.03h29.98c2.77,0,5.03-2.26,5.03-5.03v-29.98c0-2.77-2.26-5.03-5.03-5.03Zm0,0h-29.98c-2.77,0-5.03,2.26-5.03,5.03v29.98c0,2.77,2.26,5.03,5.03,5.03h29.98c2.77,0,5.03-2.26,5.03-5.03v-29.98c0-2.77-2.26-5.03-5.03-5.03Zm0,0h-29.98c-2.77,0-5.03,2.26-5.03,5.03v29.98c0,2.77,2.26,5.03,5.03,5.03h29.98c2.77,0,5.03-2.26,5.03-5.03v-29.98c0-2.77-2.26-5.03-5.03-5.03Zm0,0h-29.98c-2.77,0-5.03,2.26-5.03,5.03v29.98c0,2.77,2.26,5.03,5.03,5.03h29.98c2.77,0,5.03-2.26,5.03-5.03v-29.98c0-2.77-2.26-5.03-5.03-5.03Zm0,0h-29.98c-2.77,0-5.03,2.26-5.03,5.03v29.98c0,2.77,2.26,5.03,5.03,5.03h29.98c2.77,0,5.03-2.26,5.03-5.03v-29.98c0-2.77-2.26-5.03-5.03-5.03Zm0,0h-29.98c-2.77,0-5.03,2.26-5.03,5.03v29.98c0,2.77,2.26,5.03,5.03,5.03h29.98c2.77,0,5.03-2.26,5.03-5.03v-29.98c0-2.77-2.26-5.03-5.03-5.03Zm0,0h-29.98c-2.77,0-5.03,2.26-5.03,5.03v29.98c0,2.77,2.26,5.03,5.03,5.03h29.98c2.77,0,5.03-2.26,5.03-5.03v-29.98c0-2.77-2.26-5.03-5.03-5.03Zm18.7-20.01H38.36c-3.52,0-6.39,2.87-6.39,6.39v67.33c0,3.52,2.87,6.39,6.39,6.39h67.33c3.52,0,6.39-2.87,6.39-6.39V38.36c0-3.52-2.87-6.39-6.39-6.39Zm-8.67,55.02c0,5.54-4.49,10.03-10.03,10.03h-29.98c-5.54,0-10.03-4.49-10.03-10.03v-29.98c0-5.54,4.49-10.03,10.03-10.03h29.98c5.54,0,10.03,4.49,10.03,10.03v29.98Zm-10.03-35.01h-29.98c-2.77,0-5.03,2.26-5.03,5.03v29.98c0,2.77,2.26,5.03,5.03,5.03h29.98c2.77,0,5.03-2.26,5.03-5.03v-29.98c0-2.77-2.26-5.03-5.03-5.03Zm0,0h-29.98c-2.77,0-5.03,2.26-5.03,5.03v29.98c0,2.77,2.26,5.03,5.03,5.03h29.98c2.77,0,5.03-2.26,5.03-5.03v-29.98c0-2.77-2.26-5.03-5.03-5.03Zm0,0h-29.98c-2.77,0-5.03,2.26-5.03,5.03v29.98c0,2.77,2.26,5.03,5.03,5.03h29.98c2.77,0,5.03-2.26,5.03-5.03v-29.98c0-2.77-2.26-5.03-5.03-5.03Zm0,0h-29.98c-2.77,0-5.03,2.26-5.03,5.03v29.98c0,2.77,2.26,5.03,5.03,5.03h29.98c2.77,0,5.03-2.26,5.03-5.03v-29.98c0-2.77-2.26-5.03-5.03-5.03Zm0,0h-29.98c-2.77,0-5.03,2.26-5.03,5.03v29.98c0,2.77,2.26,5.03,5.03,5.03h29.98c2.77,0,5.03-2.26,5.03-5.03v-29.98c0-2.77-2.26-5.03-5.03-5.03Zm0,0h-29.98c-2.77,0-5.03,2.26-5.03,5.03v29.98c0,2.77,2.26,5.03,5.03,5.03h29.98c2.77,0,5.03-2.26,5.03-5.03v-29.98c0-2.77-2.26-5.03-5.03-5.03Zm0,0h-29.98c-2.77,0-5.03,2.26-5.03,5.03v29.98c0,2.77,2.26,5.03,5.03,5.03h29.98c2.77,0,5.03-2.26,5.03-5.03v-29.98c0-2.77-2.26-5.03-5.03-5.03Zm18.7-20.01H38.36c-3.52,0-6.39,2.87-6.39,6.39v67.33c0,3.52,2.87,6.39,6.39,6.39h67.33c3.52,0,6.39-2.87,6.39-6.39V38.36c0-3.52-2.87-6.39-6.39-6.39Zm-8.67,55.02c0,5.54-4.49,10.03-10.03,10.03h-29.98c-5.54,0-10.03-4.49-10.03-10.03v-29.98c0-5.54,4.49-10.03,10.03-10.03h29.98c5.54,0,10.03,4.49,10.03,10.03v29.98Zm-10.03-35.01h-29.98c-2.77,0-5.03,2.26-5.03,5.03v29.98c0,2.77,2.26,5.03,5.03,5.03h29.98c2.77,0,5.03-2.26,5.03-5.03v-29.98c0-2.77-2.26-5.03-5.03-5.03Zm0,0h-29.98c-2.77,0-5.03,2.26-5.03,5.03v29.98c0,2.77,2.26,5.03,5.03,5.03h29.98c2.77,0,5.03-2.26,5.03-5.03v-29.98c0-2.77-2.26-5.03-5.03-5.03Zm0,0h-29.98c-2.77,0-5.03,2.26-5.03,5.03v29.98c0,2.77,2.26,5.03,5.03,5.03h29.98c2.77,0,5.03-2.26,5.03-5.03v-29.98c0-2.77-2.26-5.03-5.03-5.03Zm0,0h-29.98c-2.77,0-5.03,2.26-5.03,5.03v29.98c0,2.77,2.26,5.03,5.03,5.03h29.98c2.77,0,5.03-2.26,5.03-5.03v-29.98c0-2.77-2.26-5.03-5.03-5.03Zm0,0h-29.98c-2.77,0-5.03,2.26-5.03,5.03v29.98c0,2.77,2.26,5.03,5.03,5.03h29.98c2.77,0,5.03-2.26,5.03-5.03v-29.98c0-2.77-2.26-5.03-5.03-5.03Zm0,0h-29.98c-2.77,0-5.03,2.26-5.03,5.03v29.98c0,2.77,2.26,5.03,5.03,5.03h29.98c2.77,0,5.03-2.26,5.03-5.03v-29.98c0-2.77-2.26-5.03-5.03-5.03Zm0,0h-29.98c-2.77,0-5.03,2.26-5.03,5.03v29.98c0,2.77,2.26,5.03,5.03,5.03h29.98c2.77,0,5.03-2.26,5.03-5.03v-29.98c0-2.77-2.26-5.03-5.03-5.03Zm0,0h-29.98c-2.77,0-5.03,2.26-5.03,5.03v29.98c0,2.77,2.26,5.03,5.03,5.03h29.98c2.77,0,5.03-2.26,5.03-5.03v-29.98c0-2.77-2.26-5.03-5.03-5.03Zm0,0h-29.98c-2.77,0-5.03,2.26-5.03,5.03v29.98c0,2.77,2.26,5.03,5.03,5.03h29.98c2.77,0,5.03-2.26,5.03-5.03v-29.98c0-2.77-2.26-5.03-5.03-5.03Zm0,0h-29.98c-2.77,0-5.03,2.26-5.03,5.03v29.98c0,2.77,2.26,5.03,5.03,5.03h29.98c2.77,0,5.03-2.26,5.03-5.03v-29.98c0-2.77-2.26-5.03-5.03-5.03Zm0,0h-29.98c-2.77,0-5.03,2.26-5.03,5.03v29.98c0,2.77,2.26,5.03,5.03,5.03h29.98c2.77,0,5.03-2.26,5.03-5.03v-29.98c0-2.77-2.26-5.03-5.03-5.03Zm18.7-20.01H38.36c-3.52,0-6.39,2.87-6.39,6.39v67.33c0,3.52,2.87,6.39,6.39,6.39h67.33c3.52,0,6.39-2.87,6.39-6.39V38.36c0-3.52-2.87-6.39-6.39-6.39Zm-8.67,55.02c0,5.54-4.49,10.03-10.03,10.03h-29.98c-5.54,0-10.03-4.49-10.03-10.03v-29.98c0-5.54,4.49-10.03,10.03-10.03h29.98c5.54,0,10.03,4.49,10.03,10.03v29.98Zm-10.03-35.01h-29.98c-2.77,0-5.03,2.26-5.03,5.03v29.98c0,2.77,2.26,5.03,5.03,5.03h29.98c2.77,0,5.03-2.26,5.03-5.03v-29.98c0-2.77-2.26-5.03-5.03-5.03Zm0,0h-29.98c-2.77,0-5.03,2.26-5.03,5.03v29.98c0,2.77,2.26,5.03,5.03,5.03h29.98c2.77,0,5.03-2.26,5.03-5.03v-29.98c0-2.77-2.26-5.03-5.03-5.03Zm0,0h-29.98c-2.77,0-5.03,2.26-5.03,5.03v29.98c0,2.77,2.26,5.03,5.03,5.03h29.98c2.77,0,5.03-2.26,5.03-5.03v-29.98c0-2.77-2.26-5.03-5.03-5.03Zm0,0h-29.98c-2.77,0-5.03,2.26-5.03,5.03v29.98c0,2.77,2.26,5.03,5.03,5.03h29.98c2.77,0,5.03-2.26,5.03-5.03v-29.98c0-2.77-2.26-5.03-5.03-5.03Zm0,0h-29.98c-2.77,0-5.03,2.26-5.03,5.03v29.98c0,2.77,2.26,5.03,5.03,5.03h29.98c2.77,0,5.03-2.26,5.03-5.03v-29.98c0-2.77-2.26-5.03-5.03-5.03Zm0,0h-29.98c-2.77,0-5.03,2.26-5.03,5.03v29.98c0,2.77,2.26,5.03,5.03,5.03h29.98c2.77,0,5.03-2.26,5.03-5.03v-29.98c0-2.77-2.26-5.03-5.03-5.03Zm0,0h-29.98c-2.77,0-5.03,2.26-5.03,5.03v29.98c0,2.77,2.26,5.03,5.03,5.03h29.98c2.77,0,5.03-2.26,5.03-5.03v-29.98c0-2.77-2.26-5.03-5.03-5.03Zm0,0h-29.98c-2.77,0-5.03,2.26-5.03,5.03v29.98c0,2.77,2.26,5.03,5.03,5.03h29.98c2.77,0,5.03-2.26,5.03-5.03v-29.98c0-2.77-2.26-5.03-5.03-5.03Zm0,0h-29.98c-2.77,0-5.03,2.26-5.03,5.03v29.98c0,2.77,2.26,5.03,5.03,5.03h29.98c2.77,0,5.03-2.26,5.03-5.03v-29.98c0-2.77-2.26-5.03-5.03-5.03Zm0,0h-29.98c-2.77,0-5.03,2.26-5.03,5.03v29.98c0,2.77,2.26,5.03,5.03,5.03h29.98c2.77,0,5.03-2.26,5.03-5.03v-29.98c0-2.77-2.26-5.03-5.03-5.03Zm0,0h-29.98c-2.77,0-5.03,2.26-5.03,5.03v29.98c0,2.77,2.26,5.03,5.03,5.03h29.98c2.77,0,5.03-2.26,5.03-5.03v-29.98c0-2.77-2.26-5.03-5.03-5.03Zm18.7-20.01H38.36c-3.52,0-6.39,2.87-6.39,6.39v67.33c0,3.52,2.87,6.39,6.39,6.39h67.33c3.52,0,6.39-2.87,6.39-6.39V38.36c0-3.52-2.87-6.39-6.39-6.39Zm-8.67,55.02c0,5.54-4.49,10.03-10.03,10.03h-29.98c-5.54,0-10.03-4.49-10.03-10.03v-29.98c0-5.54,4.49-10.03,10.03-10.03h29.98c5.54,0,10.03,4.49,10.03,10.03v29.98Zm-10.03-35.01h-29.98c-2.77,0-5.03,2.26-5.03,5.03v29.98c0,2.77,2.26,5.03,5.03,5.03h29.98c2.77,0,5.03-2.26,5.03-5.03v-29.98c0-2.77-2.26-5.03-5.03-5.03Zm0,0h-29.98c-2.77,0-5.03,2.26-5.03,5.03v29.98c0,2.77,2.26,5.03,5.03,5.03h29.98c2.77,0,5.03-2.26,5.03-5.03v-29.98c0-2.77-2.26-5.03-5.03-5.03Zm0,0h-29.98c-2.77,0-5.03,2.26-5.03,5.03v29.98c0,2.77,2.26,5.03,5.03,5.03h29.98c2.77,0,5.03-2.26,5.03-5.03v-29.98c0-2.77-2.26-5.03-5.03-5.03Zm0,0h-29.98c-2.77,0-5.03,2.26-5.03,5.03v29.98c0,2.77,2.26,5.03,5.03,5.03h29.98c2.77,0,5.03-2.26,5.03-5.03v-29.98c0-2.77-2.26-5.03-5.03-5.03Zm0,0h-29.98c-2.77,0-5.03,2.26-5.03,5.03v29.98c0,2.77,2.26,5.03,5.03,5.03h29.98c2.77,0,5.03-2.26,5.03-5.03v-29.98c0-2.77-2.26-5.03-5.03-5.03Zm0,0h-29.98c-2.77,0-5.03,2.26-5.03,5.03v29.98c0,2.77,2.26,5.03,5.03,5.03h29.98c2.77,0,5.03-2.26,5.03-5.03v-29.98c0-2.77-2.26-5.03-5.03-5.03Zm0,0h-29.98c-2.77,0-5.03,2.26-5.03,5.03v29.98c0,2.77,2.26,5.03,5.03,5.03h29.98c2.77,0,5.03-2.26,5.03-5.03v-29.98c0-2.77-2.26-5.03-5.03-5.03Zm0,0h-29.98c-2.77,0-5.03,2.26-5.03,5.03v29.98c0,2.77,2.26,5.03,5.03,5.03h29.98c2.77,0,5.03-2.26,5.03-5.03v-29.98c0-2.77-2.26-5.03-5.03-5.03Zm0,0h-29.98c-2.77,0-5.03,2.26-5.03,5.03v29.98c0,2.77,2.26,5.03,5.03,5.03h29.98c2.77,0,5.03-2.26,5.03-5.03v-29.98c0-2.77-2.26-5.03-5.03-5.03Zm0,0h-29.98c-2.77,0-5.03,2.26-5.03,5.03v29.98c0,2.77,2.26,5.03,5.03,5.03h29.98c2.77,0,5.03-2.26,5.03-5.03v-29.98c0-2.77-2.26-5.03-5.03-5.03Zm0,0h-29.98c-2.77,0-5.03,2.26-5.03,5.03v29.98c0,2.77,2.26,5.03,5.03,5.03h29.98c2.77,0,5.03-2.26,5.03-5.03v-29.98c0-2.77-2.26-5.03-5.03-5.03Zm0,0h-29.98c-2.77,0-5.03,2.26-5.03,5.03v29.98c0,2.77,2.26,5.03,5.03,5.03h29.98c2.77,0,5.03-2.26,5.03-5.03v-29.98c0-2.77-2.26-5.03-5.03-5.03Zm0,0h-29.98c-2.77,0-5.03,2.26-5.03,5.03v29.98c0,2.77,2.26,5.03,5.03,5.03h29.98c2.77,0,5.03-2.26,5.03-5.03v-29.98c0-2.77-2.26-5.03-5.03-5.03Zm0,0h-29.98c-2.77,0-5.03,2.26-5.03,5.03v29.98c0,2.77,2.26,5.03,5.03,5.03h29.98c2.77,0,5.03-2.26,5.03-5.03v-29.98c0-2.77-2.26-5.03-5.03-5.03Zm0,0h-29.98c-2.77,0-5.03,2.26-5.03,5.03v29.98c0,2.77,2.26,5.03,5.03,5.03h29.98c2.77,0,5.03-2.26,5.03-5.03v-29.98c0-2.77-2.26-5.03-5.03-5.03Zm18.7-20.01H38.36c-3.52,0-6.39,2.87-6.39,6.39v67.33c0,3.52,2.87,6.39,6.39,6.39h67.33c3.52,0,6.39-2.87,6.39-6.39V38.36c0-3.52-2.87-6.39-6.39-6.39Zm-8.67,55.02c0,5.54-4.49,10.03-10.03,10.03h-29.98c-5.54,0-10.03-4.49-10.03-10.03v-29.98c0-5.54,4.49-10.03,10.03-10.03h29.98c5.54,0,10.03,4.49,10.03,10.03v29.98Zm-10.03-35.01h-29.98c-2.77,0-5.03,2.26-5.03,5.03v29.98c0,2.77,2.26,5.03,5.03,5.03h29.98c2.77,0,5.03-2.26,5.03-5.03v-29.98c0-2.77-2.26-5.03-5.03-5.03Zm0,0h-29.98c-2.77,0-5.03,2.26-5.03,5.03v29.98c0,2.77,2.26,5.03,5.03,5.03h29.98c2.77,0,5.03-2.26,5.03-5.03v-29.98c0-2.77-2.26-5.03-5.03-5.03Zm0,0h-29.98c-2.77,0-5.03,2.26-5.03,5.03v29.98c0,2.77,2.26,5.03,5.03,5.03h29.98c2.77,0,5.03-2.26,5.03-5.03v-29.98c0-2.77-2.26-5.03-5.03-5.03Zm0,0h-29.98c-2.77,0-5.03,2.26-5.03,5.03v29.98c0,2.77,2.26,5.03,5.03,5.03h29.98c2.77,0,5.03-2.26,5.03-5.03v-29.98c0-2.77-2.26-5.03-5.03-5.03Zm0,0h-29.98c-2.77,0-5.03,2.26-5.03,5.03v29.98c0,2.77,2.26,5.03,5.03,5.03h29.98c2.77,0,5.03-2.26,5.03-5.03v-29.98c0-2.77-2.26-5.03-5.03-5.03Zm0,0h-29.98c-2.77,0-5.03,2.26-5.03,5.03v29.98c0,2.77,2.26,5.03,5.03,5.03h29.98c2.77,0,5.03-2.26,5.03-5.03v-29.98c0-2.77-2.26-5.03-5.03-5.03Zm0,0h-29.98c-2.77,0-5.03,2.26-5.03,5.03v29.98c0,2.77,2.26,5.03,5.03,5.03h29.98c2.77,0,5.03-2.26,5.03-5.03v-29.98c0-2.77-2.26-5.03-5.03-5.03Zm0,0h-29.98c-2.77,0-5.03,2.26-5.03,5.03v29.98c0,2.77,2.26,5.03,5.03,5.03h29.98c2.77,0,5.03-2.26,5.03-5.03v-29.98c0-2.77-2.26-5.03-5.03-5.03Zm0,0h-29.98c-2.77,0-5.03,2.26-5.03,5.03v29.98c0,2.77,2.26,5.03,5.03,5.03h29.98c2.77,0,5.03-2.26,5.03-5.03v-29.98c0-2.77-2.26-5.03-5.03-5.03Zm0,0h-29.98c-2.77,0-5.03,2.26-5.03,5.03v29.98c0,2.77,2.26,5.03,5.03,5.03h29.98c2.77,0,5.03-2.26,5.03-5.03v-29.98c0-2.77-2.26-5.03-5.03-5.03Zm0,0h-29.98c-2.77,0-5.03,2.26-5.03,5.03v29.98c0,2.77,2.26,5.03,5.03,5.03h29.98c2.77,0,5.03-2.26,5.03-5.03v-29.98c0-2.77-2.26-5.03-5.03-5.03Zm0,0h-29.98c-2.77,0-5.03,2.26-5.03,5.03v29.98c0,2.77,2.26,5.03,5.03,5.03h29.98c2.77,0,5.03-2.26,5.03-5.03v-29.98c0-2.77-2.26-5.03-5.03-5.03Zm0,0h-29.98c-2.77,0-5.03,2.26-5.03,5.03v29.98c0,2.77,2.26,5.03,5.03,5.03h29.98c2.77,0,5.03-2.26,5.03-5.03v-29.98c0-2.77-2.26-5.03-5.03-5.03Zm0,0h-29.98c-2.77,0-5.03,2.26-5.03,5.03v29.98c0,2.77,2.26,5.03,5.03,5.03h29.98c2.77,0,5.03-2.26,5.03-5.03v-29.98c0-2.77-2.26-5.03-5.03-5.03Zm0,0h-29.98c-2.77,0-5.03,2.26-5.03,5.03v29.98c0,2.77,2.26,5.03,5.03,5.03h29.98c2.77,0,5.03-2.26,5.03-5.03v-29.98c0-2.77-2.26-5.03-5.03-5.03Zm18.7-20.01H38.36c-3.52,0-6.39,2.87-6.39,6.39v67.33c0,3.52,2.87,6.39,6.39,6.39h67.33c3.52,0,6.39-2.87,6.39-6.39V38.36c0-3.52-2.87-6.39-6.39-6.39Zm-8.67,55.02c0,5.54-4.49,10.03-10.03,10.03h-29.98c-5.54,0-10.03-4.49-10.03-10.03v-29.98c0-5.54,4.49-10.03,10.03-10.03h29.98c5.54,0,10.03,4.49,10.03,10.03v29.98Zm-10.03-35.01h-29.98c-2.77,0-5.03,2.26-5.03,5.03v29.98c0,2.77,2.26,5.03,5.03,5.03h29.98c2.77,0,5.03-2.26,5.03-5.03v-29.98c0-2.77-2.26-5.03-5.03-5.03Zm0,0h-29.98c-2.77,0-5.03,2.26-5.03,5.03v29.98c0,2.77,2.26,5.03,5.03,5.03h29.98c2.77,0,5.03-2.26,5.03-5.03v-29.98c0-2.77-2.26-5.03-5.03-5.03Zm0,0h-29.98c-2.77,0-5.03,2.26-5.03,5.03v29.98c0,2.77,2.26,5.03,5.03,5.03h29.98c2.77,0,5.03-2.26,5.03-5.03v-29.98c0-2.77-2.26-5.03-5.03-5.03Zm0,0h-29.98c-2.77,0-5.03,2.26-5.03,5.03v29.98c0,2.77,2.26,5.03,5.03,5.03h29.98c2.77,0,5.03-2.26,5.03-5.03v-29.98c0-2.77-2.26-5.03-5.03-5.03Zm0,0h-29.98c-2.77,0-5.03,2.26-5.03,5.03v29.98c0,2.77,2.26,5.03,5.03,5.03h29.98c2.77,0,5.03-2.26,5.03-5.03v-29.98c0-2.77-2.26-5.03-5.03-5.03Zm0,0h-29.98c-2.77,0-5.03,2.26-5.03,5.03v29.98c0,2.77,2.26,5.03,5.03,5.03h29.98c2.77,0,5.03-2.26,5.03-5.03v-29.98c0-2.77-2.26-5.03-5.03-5.03Zm0,0h-29.98c-2.77,0-5.03,2.26-5.03,5.03v29.98c0,2.77,2.26,5.03,5.03,5.03h29.98c2.77,0,5.03-2.26,5.03-5.03v-29.98c0-2.77-2.26-5.03-5.03-5.03Zm0,0h-29.98c-2.77,0-5.03,2.26-5.03,5.03v29.98c0,2.77,2.26,5.03,5.03,5.03h29.98c2.77,0,5.03-2.26,5.03-5.03v-29.98c0-2.77-2.26-5.03-5.03-5.03Zm0,0h-29.98c-2.77,0-5.03,2.26-5.03,5.03v29.98c0,2.77,2.26,5.03,5.03,5.03h29.98c2.77,0,5.03-2.26,5.03-5.03v-29.98c0-2.77-2.26-5.03-5.03-5.03Zm0,0h-29.98c-2.77,0-5.03,2.26-5.03,5.03v29.98c0,2.77,2.26,5.03,5.03,5.03h29.98c2.77,0,5.03-2.26,5.03-5.03v-29.98c0-2.77-2.26-5.03-5.03-5.03Zm0,0h-29.98c-2.77,0-5.03,2.26-5.03,5.03v29.98c0,2.77,2.26,5.03,5.03,5.03h29.98c2.77,0,5.03-2.26,5.03-5.03v-29.98c0-2.77-2.26-5.03-5.03-5.03Zm0,0h-29.98c-2.77,0-5.03,2.26-5.03,5.03v29.98c0,2.77,2.26,5.03,5.03,5.03h29.98c2.77,0,5.03-2.26,5.03-5.03v-29.98c0-2.77-2.26-5.03-5.03-5.03Zm0,0h-29.98c-2.77,0-5.03,2.26-5.03,5.03v29.98c0,2.77,2.26,5.03,5.03,5.03h29.98c2.77,0,5.03-2.26,5.03-5.03v-29.98c0-2.77-2.26-5.03-5.03-5.03Zm0,0h-29.98c-2.77,0-5.03,2.26-5.03,5.03v29.98c0,2.77,2.26,5.03,5.03,5.03h29.98c2.77,0,5.03-2.26,5.03-5.03v-29.98c0-2.77-2.26-5.03-5.03-5.03Zm0,0h-29.98c-2.77,0-5.03,2.26-5.03,5.03v29.98c0,2.77,2.26,5.03,5.03,5.03h29.98c2.77,0,5.03-2.26,5.03-5.03v-29.98c0-2.77-2.26-5.03-5.03-5.03Zm0,0h-29.98c-2.77,0-5.03,2.26-5.03,5.03v29.98c0,2.77,2.26,5.03,5.03,5.03h29.98c2.77,0,5.03-2.26,5.03-5.03v-29.98c0-2.77-2.26-5.03-5.03-5.03Zm0,0h-29.98c-2.77,0-5.03,2.26-5.03,5.03v29.98c0,2.77,2.26,5.03,5.03,5.03h29.98c2.77,0,5.03-2.26,5.03-5.03v-29.98c0-2.77-2.26-5.03-5.03-5.03Zm0,0h-29.98c-2.77,0-5.03,2.26-5.03,5.03v29.98c0,2.77,2.26,5.03,5.03,5.03h29.98c2.77,0,5.03-2.26,5.03-5.03v-29.98c0-2.77-2.26-5.03-5.03-5.03Zm0,0h-29.98c-2.77,0-5.03,2.26-5.03,5.03v29.98c0,2.77,2.26,5.03,5.03,5.03h29.98c2.77,0,5.03-2.26,5.03-5.03v-29.98c0-2.77-2.26-5.03-5.03-5.03Zm18.7-20.01H38.36c-3.52,0-6.39,2.87-6.39,6.39v67.33c0,3.52,2.87,6.39,6.39,6.39h67.33c3.52,0,6.39-2.87,6.39-6.39V38.36c0-3.52-2.87-6.39-6.39-6.39Zm-8.67,55.02c0,5.54-4.49,10.03-10.03,10.03h-29.98c-5.54,0-10.03-4.49-10.03-10.03v-29.98c0-5.54,4.49-10.03,10.03-10.03h29.98c5.54,0,10.03,4.49,10.03,10.03v29.98Zm-10.03-35.01h-29.98c-2.77,0-5.03,2.26-5.03,5.03v29.98c0,2.77,2.26,5.03,5.03,5.03h29.98c2.77,0,5.03-2.26,5.03-5.03v-29.98c0-2.77-2.26-5.03-5.03-5.03Zm0,0h-29.98c-2.77,0-5.03,2.26-5.03,5.03v29.98c0,2.77,2.26,5.03,5.03,5.03h29.98c2.77,0,5.03-2.26,5.03-5.03v-29.98c0-2.77-2.26-5.03-5.03-5.03Zm0,0h-29.98c-2.77,0-5.03,2.26-5.03,5.03v29.98c0,2.77,2.26,5.03,5.03,5.03h29.98c2.77,0,5.03-2.26,5.03-5.03v-29.98c0-2.77-2.26-5.03-5.03-5.03Zm0,0h-29.98c-2.77,0-5.03,2.26-5.03,5.03v29.98c0,2.77,2.26,5.03,5.03,5.03h29.98c2.77,0,5.03-2.26,5.03-5.03v-29.98c0-2.77-2.26-5.03-5.03-5.03Zm0,0h-29.98c-2.77,0-5.03,2.26-5.03,5.03v29.98c0,2.77,2.26,5.03,5.03,5.03h29.98c2.77,0,5.03-2.26,5.03-5.03v-29.98c0-2.77-2.26-5.03-5.03-5.03Zm0,0h-29.98c-2.77,0-5.03,2.26-5.03,5.03v29.98c0,2.77,2.26,5.03,5.03,5.03h29.98c2.77,0,5.03-2.26,5.03-5.03v-29.98c0-2.77-2.26-5.03-5.03-5.03Zm0,0h-29.98c-2.77,0-5.03,2.26-5.03,5.03v29.98c0,2.77,2.26,5.03,5.03,5.03h29.98c2.77,0,5.03-2.26,5.03-5.03v-29.98c0-2.77-2.26-5.03-5.03-5.03Zm0,0h-29.98c-2.77,0-5.03,2.26-5.03,5.03v29.98c0,2.77,2.26,5.03,5.03,5.03h29.98c2.77,0,5.03-2.26,5.03-5.03v-29.98c0-2.77-2.26-5.03-5.03-5.03Zm0,0h-29.98c-2.77,0-5.03,2.26-5.03,5.03v29.98c0,2.77,2.26,5.03,5.03,5.03h29.98c2.77,0,5.03-2.26,5.03-5.03v-29.98c0-2.77-2.26-5.03-5.03-5.03Zm0,0h-29.98c-2.77,0-5.03,2.26-5.03,5.03v29.98c0,2.77,2.26,5.03,5.03,5.03h29.98c2.77,0,5.03-2.26,5.03-5.03v-29.98c0-2.77-2.26-5.03-5.03-5.03Zm0,0h-29.98c-2.77,0-5.03,2.26-5.03,5.03v29.98c0,2.77,2.26,5.03,5.03,5.03h29.98c2.77,0,5.03-2.26,5.03-5.03v-29.98c0-2.77-2.26-5.03-5.03-5.03Zm0,0h-29.98c-2.77,0-5.03,2.26-5.03,5.03v29.98c0,2.77,2.26,5.03,5.03,5.03h29.98c2.77,0,5.03-2.26,5.03-5.03v-29.98c0-2.77-2.26-5.03-5.03-5.03Zm0,0h-29.98c-2.77,0-5.03,2.26-5.03,5.03v29.98c0,2.77,2.26,5.03,5.03,5.03h29.98c2.77,0,5.03-2.26,5.03-5.03v-29.98c0-2.77-2.26-5.03-5.03-5.03Zm0,0h-29.98c-2.77,0-5.03,2.26-5.03,5.03v29.98c0,2.77,2.26,5.03,5.03,5.03h29.98c2.77,0,5.03-2.26,5.03-5.03v-29.98c0-2.77-2.26-5.03-5.03-5.03Zm0,0h-29.98c-2.77,0-5.03,2.26-5.03,5.03v29.98c0,2.77,2.26,5.03,5.03,5.03h29.98c2.77,0,5.03-2.26,5.03-5.03v-29.98c0-2.77-2.26-5.03-5.03-5.03Zm0,0h-29.98c-2.77,0-5.03,2.26-5.03,5.03v29.98c0,2.77,2.26,5.03,5.03,5.03h29.98c2.77,0,5.03-2.26,5.03-5.03v-29.98c0-2.77-2.26-5.03-5.03-5.03Zm0,0h-29.98c-2.77,0-5.03,2.26-5.03,5.03v29.98c0,2.77,2.26,5.03,5.03,5.03h29.98c2.77,0,5.03-2.26,5.03-5.03v-29.98c0-2.77-2.26-5.03-5.03-5.03Zm0,0h-29.98c-2.77,0-5.03,2.26-5.03,5.03v29.98c0,2.77,2.26,5.03,5.03,5.03h29.98c2.77,0,5.03-2.26,5.03-5.03v-29.98c0-2.77-2.26-5.03-5.03-5.03Zm0,0h-29.98c-2.77,0-5.03,2.26-5.03,5.03v29.98c0,2.77,2.26,5.03,5.03,5.03h29.98c2.77,0,5.03-2.26,5.03-5.03v-29.98c0-2.77-2.26-5.03-5.03-5.03Zm18.7-20.01H38.36c-3.52,0-6.39,2.87-6.39,6.39v67.33c0,3.52,2.87,6.39,6.39,6.39h67.33c3.52,0,6.39-2.87,6.39-6.39V38.36c0-3.52-2.87-6.39-6.39-6.39Zm-8.67,55.02c0,5.54-4.49,10.03-10.03,10.03h-29.98c-5.54,0-10.03-4.49-10.03-10.03v-29.98c0-5.54,4.49-10.03,10.03-10.03h29.98c5.54,0,10.03,4.49,10.03,10.03v29.98Zm-10.03-35.01h-29.98c-2.77,0-5.03,2.26-5.03,5.03v29.98c0,2.77,2.26,5.03,5.03,5.03h29.98c2.77,0,5.03-2.26,5.03-5.03v-29.98c0-2.77-2.26-5.03-5.03-5.03Zm0,0h-29.98c-2.77,0-5.03,2.26-5.03,5.03v29.98c0,2.77,2.26,5.03,5.03,5.03h29.98c2.77,0,5.03-2.26,5.03-5.03v-29.98c0-2.77-2.26-5.03-5.03-5.03Zm0,0h-29.98c-2.77,0-5.03,2.26-5.03,5.03v29.98c0,2.77,2.26,5.03,5.03,5.03h29.98c2.77,0,5.03-2.26,5.03-5.03v-29.98c0-2.77-2.26-5.03-5.03-5.03Zm0,0h-29.98c-2.77,0-5.03,2.26-5.03,5.03v29.98c0,2.77,2.26,5.03,5.03,5.03h29.98c2.77,0,5.03-2.26,5.03-5.03v-29.98c0-2.77-2.26-5.03-5.03-5.03Zm0,0h-29.98c-2.77,0-5.03,2.26-5.03,5.03v29.98c0,2.77,2.26,5.03,5.03,5.03h29.98c2.77,0,5.03-2.26,5.03-5.03v-29.98c0-2.77-2.26-5.03-5.03-5.03Zm0,0h-29.98c-2.77,0-5.03,2.26-5.03,5.03v29.98c0,2.77,2.26,5.03,5.03,5.03h29.98c2.77,0,5.03-2.26,5.03-5.03v-29.98c0-2.77-2.26-5.03-5.03-5.03Zm0,0h-29.98c-2.77,0-5.03,2.26-5.03,5.03v29.98c0,2.77,2.26,5.03,5.03,5.03h29.98c2.77,0,5.03-2.26,5.03-5.03v-29.98c0-2.77-2.26-5.03-5.03-5.03Zm0,0h-29.98c-2.77,0-5.03,2.26-5.03,5.03v29.98c0,2.77,2.26,5.03,5.03,5.03h29.98c2.77,0,5.03-2.26,5.03-5.03v-29.98c0-2.77-2.26-5.03-5.03-5.03Zm0,0h-29.98c-2.77,0-5.03,2.26-5.03,5.03v29.98c0,2.77,2.26,5.03,5.03,5.03h29.98c2.77,0,5.03-2.26,5.03-5.03v-29.98c0-2.77-2.26-5.03-5.03-5.03Zm0,0h-29.98c-2.77,0-5.03,2.26-5.03,5.03v29.98c0,2.77,2.26,5.03,5.03,5.03h29.98c2.77,0,5.03-2.26,5.03-5.03v-29.98c0-2.77-2.26-5.03-5.03-5.03Zm0,0h-29.98c-2.77,0-5.03,2.26-5.03,5.03v29.98c0,2.77,2.26,5.03,5.03,5.03h29.98c2.77,0,5.03-2.26,5.03-5.03v-29.98c0-2.77-2.26-5.03-5.03-5.03Zm0,0h-29.98c-2.77,0-5.03,2.26-5.03,5.03v29.98c0,2.77,2.26,5.03,5.03,5.03h29.98c2.77,0,5.03-2.26,5.03-5.03v-29.98c0-2.77-2.26-5.03-5.03-5.03Zm0,0h-29.98c-2.77,0-5.03,2.26-5.03,5.03v29.98c0,2.77,2.26,5.03,5.03,5.03h29.98c2.77,0,5.03-2.26,5.03-5.03v-29.98c0-2.77-2.26-5.03-5.03-5.03Zm0,0h-29.98c-2.77,0-5.03,2.26-5.03,5.03v29.98c0,2.77,2.26,5.03,5.03,5.03h29.98c2.77,0,5.03-2.26,5.03-5.03v-29.98c0-2.77-2.26-5.03-5.03-5.03Zm0,0h-29.98c-2.77,0-5.03,2.26-5.03,5.03v29.98c0,2.77,2.26,5.03,5.03,5.03h29.98c2.77,0,5.03-2.26,5.03-5.03v-29.98c0-2.77-2.26-5.03-5.03-5.03Zm0,0h-29.98c-2.77,0-5.03,2.26-5.03,5.03v29.98c0,2.77,2.26,5.03,5.03,5.03h29.98c2.77,0,5.03-2.26,5.03-5.03v-29.98c0-2.77-2.26-5.03-5.03-5.03Zm0,0h-29.98c-2.77,0-5.03,2.26-5.03,5.03v29.98c0,2.77,2.26,5.03,5.03,5.03h29.98c2.77,0,5.03-2.26,5.03-5.03v-29.98c0-2.77-2.26-5.03-5.03-5.03Zm0,0h-29.98c-2.77,0-5.03,2.26-5.03,5.03v29.98c0,2.77,2.26,5.03,5.03,5.03h29.98c2.77,0,5.03-2.26,5.03-5.03v-29.98c0-2.77-2.26-5.03-5.03-5.03Zm0,0h-29.98c-2.77,0-5.03,2.26-5.03,5.03v29.98c0,2.77,2.26,5.03,5.03,5.03h29.98c2.77,0,5.03-2.26,5.03-5.03v-29.98c0-2.77-2.26-5.03-5.03-5.03Zm0,0h-29.98c-2.77,0-5.03,2.26-5.03,5.03v29.98c0,2.77,2.26,5.03,5.03,5.03h29.98c2.77,0,5.03-2.26,5.03-5.03v-29.98c0-2.77-2.26-5.03-5.03-5.03Zm0,0h-29.98c-2.77,0-5.03,2.26-5.03,5.03v29.98c0,2.77,2.26,5.03,5.03,5.03h29.98c2.77,0,5.03-2.26,5.03-5.03v-29.98c0-2.77-2.26-5.03-5.03-5.03Zm0,0h-29.98c-2.77,0-5.03,2.26-5.03,5.03v29.98c0,2.77,2.26,5.03,5.03,5.03h29.98c2.77,0,5.03-2.26,5.03-5.03v-29.98c0-2.77-2.26-5.03-5.03-5.03Zm0,0h-29.98c-2.77,0-5.03,2.26-5.03,5.03v29.98c0,2.77,2.26,5.03,5.03,5.03h29.98c2.77,0,5.03-2.26,5.03-5.03v-29.98c0-2.77-2.26-5.03-5.03-5.03Zm18.7-20.01H38.36c-3.52,0-6.39,2.87-6.39,6.39v67.33c0,3.52,2.87,6.39,6.39,6.39h67.33c3.52,0,6.39-2.87,6.39-6.39V38.36c0-3.52-2.87-6.39-6.39-6.39Zm-8.67,55.02c0,5.54-4.49,10.03-10.03,10.03h-29.98c-5.54,0-10.03-4.49-10.03-10.03v-29.98c0-5.54,4.49-10.03,10.03-10.03h29.98c5.54,0,10.03,4.49,10.03,10.03v29.98Zm-10.03-35.01h-29.98c-2.77,0-5.03,2.26-5.03,5.03v29.98c0,2.77,2.26,5.03,5.03,5.03h29.98c2.77,0,5.03-2.26,5.03-5.03v-29.98c0-2.77-2.26-5.03-5.03-5.03Zm0,0h-29.98c-2.77,0-5.03,2.26-5.03,5.03v29.98c0,2.77,2.26,5.03,5.03,5.03h29.98c2.77,0,5.03-2.26,5.03-5.03v-29.98c0-2.77-2.26-5.03-5.03-5.03Zm0,0h-29.98c-2.77,0-5.03,2.26-5.03,5.03v29.98c0,2.77,2.26,5.03,5.03,5.03h29.98c2.77,0,5.03-2.26,5.03-5.03v-29.98c0-2.77-2.26-5.03-5.03-5.03Zm0,0h-29.98c-2.77,0-5.03,2.26-5.03,5.03v29.98c0,2.77,2.26,5.03,5.03,5.03h29.98c2.77,0,5.03-2.26,5.03-5.03v-29.98c0-2.77-2.26-5.03-5.03-5.03Zm0,0h-29.98c-2.77,0-5.03,2.26-5.03,5.03v29.98c0,2.77,2.26,5.03,5.03,5.03h29.98c2.77,0,5.03-2.26,5.03-5.03v-29.98c0-2.77-2.26-5.03-5.03-5.03Zm0,0h-29.98c-2.77,0-5.03,2.26-5.03,5.03v29.98c0,2.77,2.26,5.03,5.03,5.03h29.98c2.77,0,5.03-2.26,5.03-5.03v-29.98c0-2.77-2.26-5.03-5.03-5.03Zm0,0h-29.98c-2.77,0-5.03,2.26-5.03,5.03v29.98c0,2.77,2.26,5.03,5.03,5.03h29.98c2.77,0,5.03-2.26,5.03-5.03v-29.98c0-2.77-2.26-5.03-5.03-5.03Zm0,0h-29.98c-2.77,0-5.03,2.26-5.03,5.03v29.98c0,2.77,2.26,5.03,5.03,5.03h29.98c2.77,0,5.03-2.26,5.03-5.03v-29.98c0-2.77-2.26-5.03-5.03-5.03Zm0,0h-29.98c-2.77,0-5.03,2.26-5.03,5.03v29.98c0,2.77,2.26,5.03,5.03,5.03h29.98c2.77,0,5.03-2.26,5.03-5.03v-29.98c0-2.77-2.26-5.03-5.03-5.03Zm0,0h-29.98c-2.77,0-5.03,2.26-5.03,5.03v29.98c0,2.77,2.26,5.03,5.03,5.03h29.98c2.77,0,5.03-2.26,5.03-5.03v-29.98c0-2.77-2.26-5.03-5.03-5.03Zm0,0h-29.98c-2.77,0-5.03,2.26-5.03,5.03v29.98c0,2.77,2.26,5.03,5.03,5.03h29.98c2.77,0,5.03-2.26,5.03-5.03v-29.98c0-2.77-2.26-5.03-5.03-5.03Zm0,0h-29.98c-2.77,0-5.03,2.26-5.03,5.03v29.98c0,2.77,2.26,5.03,5.03,5.03h29.98c2.77,0,5.03-2.26,5.03-5.03v-29.98c0-2.77-2.26-5.03-5.03-5.03Zm0,0h-29.98c-2.77,0-5.03,2.26-5.03,5.03v29.98c0,2.77,2.26,5.03,5.03,5.03h29.98c2.77,0,5.03-2.26,5.03-5.03v-29.98c0-2.77-2.26-5.03-5.03-5.03Zm0,0h-29.98c-2.77,0-5.03,2.26-5.03,5.03v29.98c0,2.77,2.26,5.03,5.03,5.03h29.98c2.77,0,5.03-2.26,5.03-5.03v-29.98c0-2.77-2.26-5.03-5.03-5.03Zm0,0h-29.98c-2.77,0-5.03,2.26-5.03,5.03v29.98c0,2.77,2.26,5.03,5.03,5.03h29.98c2.77,0,5.03-2.26,5.03-5.03v-29.98c0-2.77-2.26-5.03-5.03-5.03Zm0,0h-29.98c-2.77,0-5.03,2.26-5.03,5.03v29.98c0,2.77,2.26,5.03,5.03,5.03h29.98c2.77,0,5.03-2.26,5.03-5.03v-29.98c0-2.77-2.26-5.03-5.03-5.03Zm0,0h-29.98c-2.77,0-5.03,2.26-5.03,5.03v29.98c0,2.77,2.26,5.03,5.03,5.03h29.98c2.77,0,5.03-2.26,5.03-5.03v-29.98c0-2.77-2.26-5.03-5.03-5.03Zm0,0h-29.98c-2.77,0-5.03,2.26-5.03,5.03v29.98c0,2.77,2.26,5.03,5.03,5.03h29.98c2.77,0,5.03-2.26,5.03-5.03v-29.98c0-2.77-2.26-5.03-5.03-5.03Zm0,0h-29.98c-2.77,0-5.03,2.26-5.03,5.03v29.98c0,2.77,2.26,5.03,5.03,5.03h29.98c2.77,0,5.03-2.26,5.03-5.03v-29.98c0-2.77-2.26-5.03-5.03-5.03Zm0,0h-29.98c-2.77,0-5.03,2.26-5.03,5.03v29.98c0,2.77,2.26,5.03,5.03,5.03h29.98c2.77,0,5.03-2.26,5.03-5.03v-29.98c0-2.77-2.26-5.03-5.03-5.03Zm0,0h-29.98c-2.77,0-5.03,2.26-5.03,5.03v29.98c0,2.77,2.26,5.03,5.03,5.03h29.98c2.77,0,5.03-2.26,5.03-5.03v-29.98c0-2.77-2.26-5.03-5.03-5.03Zm0,0h-29.98c-2.77,0-5.03,2.26-5.03,5.03v29.98c0,2.77,2.26,5.03,5.03,5.03h29.98c2.77,0,5.03-2.26,5.03-5.03v-29.98c0-2.77-2.26-5.03-5.03-5.03Zm0,0h-29.98c-2.77,0-5.03,2.26-5.03,5.03v29.98c0,2.77,2.26,5.03,5.03,5.03h29.98c2.77,0,5.03-2.26,5.03-5.03v-29.98c0-2.77-2.26-5.03-5.03-5.03Zm18.7-20.01H38.36c-3.52,0-6.39,2.87-6.39,6.39v67.33c0,3.52,2.87,6.39,6.39,6.39h67.33c3.52,0,6.39-2.87,6.39-6.39V38.36c0-3.52-2.87-6.39-6.39-6.39Zm-8.67,55.02c0,5.54-4.49,10.03-10.03,10.03h-29.98c-5.54,0-10.03-4.49-10.03-10.03v-29.98c0-5.54,4.49-10.03,10.03-10.03h29.98c5.54,0,10.03,4.49,10.03,10.03v29.98Zm-10.03-35.01h-29.98c-2.77,0-5.03,2.26-5.03,5.03v29.98c0,2.77,2.26,5.03,5.03,5.03h29.98c2.77,0,5.03-2.26,5.03-5.03v-29.98c0-2.77-2.26-5.03-5.03-5.03Zm0,0h-29.98c-2.77,0-5.03,2.26-5.03,5.03v29.98c0,2.77,2.26,5.03,5.03,5.03h29.98c2.77,0,5.03-2.26,5.03-5.03v-29.98c0-2.77-2.26-5.03-5.03-5.03Zm0,0h-29.98c-2.77,0-5.03,2.26-5.03,5.03v29.98c0,2.77,2.26,5.03,5.03,5.03h29.98c2.77,0,5.03-2.26,5.03-5.03v-29.98c0-2.77-2.26-5.03-5.03-5.03Zm0,0h-29.98c-2.77,0-5.03,2.26-5.03,5.03v29.98c0,2.77,2.26,5.03,5.03,5.03h29.98c2.77,0,5.03-2.26,5.03-5.03v-29.98c0-2.77-2.26-5.03-5.03-5.03Zm0,0h-29.98c-2.77,0-5.03,2.26-5.03,5.03v29.98c0,2.77,2.26,5.03,5.03,5.03h29.98c2.77,0,5.03-2.26,5.03-5.03v-29.98c0-2.77-2.26-5.03-5.03-5.03Zm0,0h-29.98c-2.77,0-5.03,2.26-5.03,5.03v29.98c0,2.77,2.26,5.03,5.03,5.03h29.98c2.77,0,5.03-2.26,5.03-5.03v-29.98c0-2.77-2.26-5.03-5.03-5.03Zm0,0h-29.98c-2.77,0-5.03,2.26-5.03,5.03v29.98c0,2.77,2.26,5.03,5.03,5.03h29.98c2.77,0,5.03-2.26,5.03-5.03v-29.98c0-2.77-2.26-5.03-5.03-5.03Zm0,0h-29.98c-2.77,0-5.03,2.26-5.03,5.03v29.98c0,2.77,2.26,5.03,5.03,5.03h29.98c2.77,0,5.03-2.26,5.03-5.03v-29.98c0-2.77-2.26-5.03-5.03-5.03Zm0,0h-29.98c-2.77,0-5.03,2.26-5.03,5.03v29.98c0,2.77,2.26,5.03,5.03,5.03h29.98c2.77,0,5.03-2.26,5.03-5.03v-29.98c0-2.77-2.26-5.03-5.03-5.03Zm0,0h-29.98c-2.77,0-5.03,2.26-5.03,5.03v29.98c0,2.77,2.26,5.03,5.03,5.03h29.98c2.77,0,5.03-2.26,5.03-5.03v-29.98c0-2.77-2.26-5.03-5.03-5.03Zm0,0h-29.98c-2.77,0-5.03,2.26-5.03,5.03v29.98c0,2.77,2.26,5.03,5.03,5.03h29.98c2.77,0,5.03-2.26,5.03-5.03v-29.98c0-2.77-2.26-5.03-5.03-5.03Z"/></svg>